<svg xmlns="http://www.w3.org/2000/svg" style="display:none">

  <symbol id="logo" viewBox="0 0 106 31"><title>Slides Framework</title><path d="M0 11330 c0 -1165 1 -1230 18 -1230 36 0 95 -28 118 -56 29 -36 33
-110 7 -129 -20 -15 -43 -9 -43 11 0 17 -17 18 -23 2 -4 -10 -6 -10 -6 -1 -1
17 -36 34 -55 27 -14 -5 -16 -69 -16 -599 0 -494 2 -594 14 -598 7 -3 18 -1
23 4 7 7 12 1 16 -16 4 -25 3 -27 -23 -21 l-28 5 -1 -153 -2 -152 26 -12 c14
-7 39 -12 55 -12 24 0 32 -6 44 -35 8 -19 20 -35 25 -35 6 0 11 -9 11 -19 0
-16 -4 -18 -33 -11 -17 4 -51 15 -74 23 -22 9 -44 13 -47 10 -3 -4 -6 -1300
-6 -2881 l0 -2874 37 29 c35 27 77 44 144 57 15 3 39 19 55 35 16 15 41 31 55
35 15 3 54 35 88 71 59 63 160 135 191 135 8 0 21 4 29 9 11 7 10 13 -5 35
-11 14 -23 26 -29 26 -13 1 -55 36 -55 46 0 4 -11 21 -23 38 -13 17 -29 46
-35 65 -10 29 -9 39 5 60 24 38 56 66 92 81 17 7 57 28 88 46 74 45 129 43
170 -6 11 -13 15 -13 28 5 9 11 18 31 21 45 3 14 14 44 25 67 24 55 76 76 174
70 55 -3 84 -12 129 -36 69 -36 66 -37 172 57 65 56 65 55 43 129 -8 24 -20
36 -55 50 -56 23 -61 42 -34 124 12 35 24 75 27 89 8 45 49 115 77 130 26 14
28 14 51 -13 29 -32 68 -153 84 -257 22 -135 34 -181 53 -194 15 -11 16 -15 5
-25 -15 -12 -44 -128 -35 -137 11 -10 60 -15 53 -4 -3 6 0 7 9 4 11 -4 16 0
17 15 1 12 3 26 4 31 1 6 3 15 4 21 0 5 6 7 11 4 7 -4 10 6 8 29 -1 26 5 43
23 63 31 34 74 119 84 164 4 19 12 40 18 47 9 12 11 37 6 144 -2 53 11 119 29
146 30 46 31 170 1 289 -11 43 -22 89 -24 103 -6 38 -34 100 -45 100 -12 0
-13 47 -2 54 5 3 9 20 10 39 1 18 5 44 10 58 12 30 -13 84 -63 134 -29 28 -43
35 -76 35 -45 0 -73 -24 -110 -93 -24 -46 -29 -164 -7 -182 18 -14 38 -51 38
-70 0 -59 -90 -154 -137 -146 -7 1 -13 -3 -13 -9 0 -6 -6 -18 -14 -25 -7 -7
-16 -44 -20 -82 -8 -74 -17 -94 -72 -149 -26 -25 -39 -33 -47 -25 -6 6 -19 11
-29 11 -18 0 -22 17 -19 85 2 34 49 136 68 148 7 4 13 14 13 22 0 9 6 12 15 9
9 -4 16 3 21 20 3 14 10 23 15 20 5 -3 9 1 9 9 0 8 7 17 14 20 19 7 39 82 32
112 -8 30 6 94 37 177 14 36 23 69 20 72 -3 3 -6 45 -8 95 -1 49 -6 94 -9 100
-4 6 0 23 8 39 8 16 22 73 31 128 21 121 23 127 85 229 62 103 117 142 151
108 21 -21 24 -63 14 -185 l-8 -86 29 -26 c31 -27 54 -33 54 -15 0 6 6 9 13 6
6 -2 39 19 72 48 33 28 83 66 110 85 28 18 64 48 80 66 17 18 39 34 50 35 29
4 105 -11 105 -21 0 -19 55 -17 87 4 49 32 38 93 -25 140 l-33 24 -52 -20
c-57 -23 -101 -25 -124 -6 -24 20 -50 80 -57 135 -3 28 -15 76 -24 106 -15 45
-17 68 -10 132 5 45 4 82 -1 89 -13 16 -14 186 -1 186 16 0 12 25 -8 43 -25
23 -49 21 -55 -4 -3 -12 -10 -18 -16 -14 -6 3 -11 3 -12 -2 0 -4 -4 -47 -8
-95 -6 -65 -13 -93 -27 -109 -47 -52 -110 -44 -140 19 -14 30 -15 47 -7 116
12 92 4 112 -40 101 -27 -7 -42 -41 -31 -69 8 -21 -4 -66 -17 -66 -6 0 -23 -9
-38 -19 -18 -13 -49 -20 -100 -23 -69 -4 -73 -3 -82 19 -5 14 -9 44 -9 69 0
24 -5 44 -11 44 -5 0 -17 16 -25 35 -8 19 -18 35 -23 35 -5 0 -14 14 -21 30
-7 17 -16 30 -20 30 -4 0 -17 20 -30 45 -20 39 -22 53 -16 117 8 90 25 147 47
161 10 6 14 18 11 30 -3 14 -1 18 6 13 7 -4 12 -1 12 9 0 9 -5 13 -10 10 -6
-4 -17 -1 -25 5 -8 7 -15 9 -15 5 0 -12 -46 49 -67 90 -24 45 -63 178 -63 212
0 12 -8 28 -18 35 -21 16 -72 83 -72 96 0 5 -8 20 -18 33 -10 13 -24 44 -32
69 -7 25 -20 52 -27 61 -7 8 -13 20 -13 25 0 8 -20 34 -62 84 -13 14 -25 35
-56 93 -8 16 -30 43 -49 60 -109 99 -136 131 -136 156 1 39 8 62 22 70 20 13
40 59 34 81 -3 11 0 20 6 20 17 0 13 47 -4 54 -24 9 -9 114 21 147 13 14 24
33 24 42 0 9 7 17 15 17 9 0 18 7 21 15 4 8 14 15 23 15 28 0 98 58 110 92 9
25 8 36 -6 57 -9 14 -22 30 -30 34 -7 5 -11 12 -8 18 4 5 -7 17 -24 27 -17 9
-31 20 -31 24 0 4 -7 5 -16 1 -10 -4 -22 0 -29 10 -8 11 -29 17 -64 18 -28 1
-56 8 -62 16 -6 7 -17 13 -24 13 -16 0 -23 66 -14 134 10 71 31 146 40 146 5
0 26 18 48 40 22 22 47 40 55 40 9 0 16 4 16 8 0 25 213 84 241 67 3 -3 15 2
25 10 10 8 27 15 37 15 9 0 17 4 17 9 0 5 8 12 18 15 10 4 47 32 81 65 68 62
71 76 40 146 -13 28 -21 39 -61 87 -9 11 -20 40 -24 65 -9 61 0 201 14 215 19
19 14 38 -20 70 -30 28 -31 31 -15 43 9 7 17 19 17 27 0 8 11 20 24 26 29 13
43 66 29 109 -5 16 -8 57 -7 93 3 84 -18 153 -51 168 -14 7 -25 16 -25 21 0 5
-14 22 -31 39 -39 38 -51 108 -25 135 18 17 11 28 -78 120 -22 23 -33 91 -18
110 6 7 14 37 18 65 6 48 -8 109 -37 164 -5 10 -9 25 -9 33 0 9 -17 42 -37 73
-21 31 -40 62 -43 67 -3 6 -13 22 -24 38 -17 24 -17 29 -3 50 17 26 81 49 114
41 14 -4 40 4 69 20 26 14 51 26 57 26 5 0 25 12 44 26 25 19 49 27 94 29 57
4 60 3 70 -23 17 -44 14 -133 -5 -147 -9 -7 -16 -17 -16 -24 0 -6 -10 -16 -22
-20 -21 -8 -22 -10 -4 -16 10 -5 21 -3 25 2 7 13 81 -14 81 -28 0 -5 10 -7 23
-4 15 4 41 -3 72 -19 26 -14 54 -26 60 -26 7 0 16 -7 19 -16 4 -10 14 -14 26
-11 11 3 20 1 20 -4 0 -5 6 -9 13 -9 8 0 22 -17 33 -37 39 -76 96 -154 122
-166 15 -6 29 -14 32 -18 3 -3 14 -6 25 -6 71 2 77 -1 72 -35 -3 -18 -9 -44
-14 -58 -10 -25 -7 -91 4 -120 8 -19 8 -20 17 -52 7 -24 14 -28 43 -28 69 0
125 49 144 127 8 31 16 43 30 43 10 0 21 -4 24 -10 14 -22 76 -9 163 35 108
54 185 113 208 158 9 17 29 46 43 62 14 17 35 44 46 59 51 72 62 82 84 69 12
-7 27 -13 35 -13 8 0 16 -7 20 -15 8 -22 44 -18 56 6 7 11 8 28 4 37 -13 32
-12 136 2 166 8 16 14 44 14 63 0 18 5 33 10 33 17 0 11 25 -15 60 -20 27 -24
42 -20 78 3 24 9 50 15 57 6 7 10 45 9 84 -1 47 3 76 12 87 14 18 18 111 9
231 -6 74 6 87 83 97 28 3 58 13 68 22 25 23 25 64 1 64 -29 0 -66 38 -70 70
-3 29 23 99 41 111 5 4 6 12 3 18 -4 6 -1 11 6 11 8 1 6 6 -5 15 -19 14 -16
55 4 55 5 0 9 7 9 17 0 9 3 13 7 9 4 -3 6 -24 5 -45 -2 -22 2 -42 8 -46 6 -3
7 0 4 9 -5 12 2 14 39 10 44 -4 77 12 77 37 0 5 11 22 25 38 23 25 30 28 75
23 94 -9 124 41 79 131 -12 23 -25 44 -29 47 -4 3 -15 20 -24 38 -10 19 -21
30 -28 26 -7 -5 -9 -2 -5 9 3 9 -1 18 -9 21 -9 3 -300 6 -647 6 l-632 -1 -20
-41 c-12 -25 -35 -50 -57 -62 -20 -12 -66 -49 -102 -83 -65 -62 -90 -72 -131
-57 -19 8 -45 55 -45 84 0 25 -29 77 -46 84 -37 14 -82 -40 -55 -67 6 -6 11
-20 11 -31 0 -11 6 -27 14 -35 7 -9 16 -33 20 -53 6 -33 3 -40 -20 -60 -15
-13 -34 -31 -43 -40 -9 -9 -28 -19 -43 -23 -16 -4 -28 -11 -28 -15 0 -20 -65
-52 -118 -60 -48 -7 -62 -5 -90 12 -34 21 -37 25 -23 47 9 14 74 41 101 41 27
0 69 46 85 91 25 70 26 124 4 175 -10 25 -19 57 -19 70 l0 24 -411 0 c-325 0
-409 -3 -405 -12 3 -7 9 -20 12 -30 3 -9 15 -19 26 -21 11 -3 17 -10 14 -16
-4 -5 4 -13 16 -17 28 -8 38 -22 38 -50 0 -46 -122 -37 -136 10 -3 11 -13 29
-22 39 -12 14 -13 17 -1 17 10 1 9 4 -3 14 -10 7 -18 19 -18 26 0 34 -33 39
-222 40 l-188 0 0 -1230z m903 1105 c15 -21 16 -30 6 -70 -6 -25 -14 -45 -18
-45 -11 0 -33 -59 -26 -70 14 -22 -19 -8 -39 17 -29 38 -39 94 -17 109 9 7 16
16 16 21 1 9 47 63 55 63 3 -1 13 -12 23 -25z m-27 -272 c-2 -20 -10 -29 -24
-31 -13 -2 -19 -8 -15 -18 9 -23 -83 -19 -96 5 -6 10 -7 21 -4 25 3 3 0 6 -8
6 -25 0 13 20 41 21 17 1 20 3 7 6 -9 2 -15 9 -12 14 4 5 15 5 27 -2 16 -9 24
-8 36 5 23 22 51 4 48 -31z m1154 -388 c17 -21 5 -61 -25 -81 -25 -16 -131
-35 -152 -27 -33 13 12 67 82 102 48 24 78 26 95 6z m-146 -197 c65 -42 89
-66 80 -80 -15 -23 -11 -72 8 -114 10 -24 23 -44 27 -44 13 0 31 -48 31 -81 0
-17 -7 -45 -15 -63 -14 -29 -24 -35 -92 -52 -82 -20 -77 -16 -157 -128 -22
-30 -68 -35 -101 -11 -50 37 -68 52 -90 73 -12 12 -31 22 -42 22 -11 0 -26 6
-32 14 -16 19 -16 169 0 198 24 45 101 126 134 142 21 10 45 34 60 60 27 47
88 96 119 96 11 0 42 -15 70 -32z m-1404 -358 c0 -5 -4 -10 -10 -10 -5 0 -10
5 -10 10 0 6 5 10 10 10 6 0 10 -4 10 -10z m39 -63 c9 -28 8 -93 -1 -103 -9
-9 -29 16 -32 40 -1 15 -8 32 -14 38 -16 16 -15 65 1 71 18 6 35 -10 46 -46z
m251 -197 c12 -8 12 -11 -3 -28 -9 -10 -17 -23 -17 -29 0 -19 -60 -63 -85 -63
-17 0 -24 7 -28 27 -7 37 -1 48 39 69 19 10 34 22 34 26 0 11 42 10 60 -2z
m1258 -255 c-13 -29 -28 -33 -28 -7 0 22 8 32 26 32 11 0 11 -5 2 -25z m-1772
-1594 c-3 -5 4 -12 17 -16 21 -7 20 -8 -7 -12 -19 -3 -25 -7 -17 -12 7 -5 14
-26 16 -47 1 -21 6 -47 10 -56 4 -10 5 -24 2 -32 -3 -7 -2 -17 3 -22 5 -5 4
-32 -2 -60 -9 -45 -14 -52 -44 -63 -24 -9 -34 -18 -34 -34 0 -20 0 -20 -16 -1
-12 14 -17 16 -21 6 -4 -10 -9 -7 -17 8 -6 13 -15 22 -20 21 -18 -5 -25 24
-10 41 12 12 13 21 6 35 -8 13 -7 22 4 35 14 15 14 19 -1 41 -11 18 -13 27 -5
32 8 5 8 11 0 20 -9 11 -7 22 7 47 34 62 54 78 95 78 22 0 37 -4 34 -9z m-151
-330 c8 -14 -10 -22 -30 -15 -13 5 -14 8 -3 15 17 11 26 11 33 0z m155 -608
c0 -5 -7 -16 -14 -26 -13 -16 -14 -16 -20 -1 -4 10 -1 21 6 26 16 10 28 10 28
1z m20 -67 c0 -25 -27 -43 -42 -28 -9 9 18 52 33 52 5 0 9 -11 9 -24z"/>
<path d="M1680 11345 c0 -7 -7 -15 -15 -19 -17 -6 -19 -15 -6 -35 7 -12 13
-12 40 0 17 8 31 20 31 26 0 7 0 16 0 21 -1 14 -50 21 -50 7z"/>
<path d="M3658 12543 c-3 -10 -3 -29 -2 -43 18 -147 18 -138 -11 -162 -97 -79
-122 -121 -90 -148 8 -7 24 -33 36 -58 16 -38 19 -64 17 -147 -1 -55 2 -130 6
-166 7 -56 5 -78 -13 -137 -14 -46 -21 -97 -21 -149 0 -43 -7 -99 -15 -125 -8
-26 -17 -75 -21 -108 -8 -70 -31 -101 -90 -120 -40 -14 -76 -36 -131 -82 -18
-14 -60 -40 -95 -57 -52 -24 -123 -71 -183 -118 -13 -10 -169 -60 -215 -68
-61 -11 -70 -16 -70 -35 0 -10 -8 -25 -17 -32 -10 -7 -29 -33 -42 -58 -33 -61
-55 -89 -94 -116 -17 -13 -36 -27 -42 -32 -5 -4 -37 -25 -69 -47 -33 -21 -69
-48 -81 -59 -44 -43 -82 -72 -135 -106 -30 -19 -61 -44 -69 -55 -14 -19 -102
-106 -152 -151 -13 -11 -35 -36 -49 -54 -27 -37 -36 -46 -106 -105 -25 -22
-58 -51 -72 -64 -56 -55 -138 -101 -179 -101 -33 1 -63 21 -63 43 0 9 -5 19
-10 22 -5 3 -10 21 -10 39 0 19 -7 39 -15 46 -12 10 -12 15 2 37 11 16 23 23
35 20 11 -3 30 6 48 23 39 37 42 90 5 124 -14 13 -25 27 -25 32 -1 11 -76 64
-90 64 -6 0 -10 5 -10 11 0 7 -12 9 -33 5 -21 -4 -47 -1 -68 8 -19 9 -28 15
-21 16 11 0 12 11 7 48 -5 40 -2 55 15 85 12 20 26 37 31 37 5 0 9 16 9 36 0
29 -3 35 -16 30 -8 -3 -13 -2 -10 3 7 11 -13 27 -44 34 -23 6 -28 16 -49 104
-19 79 -30 103 -55 128 -17 16 -38 44 -46 60 -10 20 -24 31 -41 33 -22 3 -28
-3 -43 -41 -13 -35 -14 -53 -6 -98 13 -70 39 -139 61 -164 38 -44 34 -66 -25
-130 -75 -82 -80 -125 -14 -125 15 0 28 -4 28 -10 0 -5 17 -12 38 -16 20 -4
40 -11 43 -16 10 -15 79 -28 79 -14 0 6 12 -11 26 -38 13 -27 22 -56 19 -66
-3 -10 0 -30 6 -46 6 -16 11 -59 10 -96 -1 -72 3 -80 64 -118 19 -12 35 -28
35 -35 0 -7 2 -20 5 -27 3 -8 -3 -23 -13 -34 -10 -10 -17 -25 -14 -32 2 -7 -3
-21 -11 -30 -23 -25 -39 -73 -31 -91 4 -9 8 -20 8 -26 1 -5 8 -36 15 -67 11
-46 12 -66 3 -97 -7 -21 -12 -52 -12 -68 0 -31 26 -93 44 -105 16 -10 -11 -36
-52 -49 -41 -13 -82 -50 -82 -74 0 -8 -20 -35 -45 -60 -60 -62 -66 -97 -32
-195 15 -42 27 -96 27 -120 0 -47 23 -92 50 -99 8 -2 31 -4 50 -5 22 -1 34 -6
33 -13 -2 -7 6 -17 17 -23 24 -13 28 -71 5 -90 -20 -17 -37 -85 -37 -148 0
-48 -2 -54 -28 -67 -34 -18 -76 -20 -85 -4 -4 6 -13 8 -19 6 -23 -9 -39 9 -28
29 5 11 7 25 5 32 -6 17 -32 -15 -33 -39 0 -10 -7 -16 -17 -15 -14 1 -17 -6
-15 -29 3 -29 29 -95 41 -105 3 -3 19 -30 34 -62 24 -46 28 -65 23 -105 -3
-26 -8 -78 -12 -115 l-7 -67 34 -20 c43 -26 83 -27 109 -1 20 20 22 28 26 130
2 61 29 134 45 124 6 -3 13 3 16 15 3 12 11 21 18 21 16 0 29 94 16 118 -7 12
-4 24 10 41 10 13 19 29 19 37 0 8 9 14 20 14 26 0 62 40 54 60 -3 8 -7 24 -8
35 -3 29 -17 78 -27 90 -4 6 -11 35 -15 65 -4 30 -11 60 -15 66 -6 7 -4 16 6
24 12 10 18 6 36 -24 12 -20 26 -33 32 -29 6 4 8 0 4 -10 -3 -10 -5 -17 -4
-17 1 0 58 -6 127 -13 132 -15 190 -16 190 -6 0 11 119 -1 254 -26 16 -3 38
-12 50 -20 26 -19 45 -19 109 1 66 21 69 24 73 74 6 58 -24 104 -85 133 -39
19 -60 22 -144 20 -87 -3 -99 -1 -118 18 -20 20 -21 20 -34 2 -7 -10 -17 -15
-21 -10 -4 4 -15 0 -25 -9 -10 -9 -27 -14 -39 -11 -11 3 -20 2 -20 -2 0 -3
-37 -7 -82 -8 -52 -1 -105 -10 -143 -22 -83 -28 -113 -27 -121 3 -3 14 -1 40
5 59 14 41 22 157 11 157 -4 0 -10 8 -13 19 -3 13 -11 17 -28 14 -19 -3 -26 2
-36 24 -22 55 -24 70 -8 77 10 4 15 20 15 53 0 38 -6 54 -25 75 -35 38 -32 68
10 97 20 13 50 42 68 64 52 64 108 115 166 150 61 36 101 73 101 94 0 18 49
72 80 88 14 8 60 47 102 89 67 65 82 75 124 82 29 4 60 2 79 -5 64 -23 134 -4
136 37 0 13 2 12 9 -4 9 -24 30 -41 30 -25 0 10 71 3 80 -8 3 -3 16 -6 31 -6
50 -1 30 64 -21 68 -20 1 -20 2 -4 14 17 13 17 14 -8 17 -7 0 -14 16 -16 34
-2 17 -9 32 -15 32 -8 0 -8 3 -2 8 6 4 16 18 23 32 25 50 40 72 66 99 14 15
26 32 26 38 0 21 137 138 195 168 33 17 73 39 90 51 16 11 50 30 75 42 48 23
90 55 90 69 0 7 96 75 110 78 38 9 73 22 112 42 26 14 57 23 70 21 23 -3 23
-4 25 -158 1 -85 2 -204 4 -265 2 -108 -4 -162 -20 -194 -5 -9 -11 -43 -15
-76 -3 -33 -8 -71 -11 -85 -36 -189 -35 -275 3 -321 53 -66 100 -100 129 -93
17 5 28 1 38 -12 7 -11 17 -19 22 -20 16 -2 43 -16 43 -24 0 -4 -11 -5 -25 -2
-16 3 -43 -5 -69 -18 -39 -21 -44 -28 -55 -81 -7 -32 -19 -69 -26 -82 -7 -13
-11 -44 -9 -68 1 -24 -2 -57 -8 -73 -14 -34 5 -117 35 -158 18 -24 18 -28 4
-42 -20 -20 -51 -20 -68 0 -27 33 -79 46 -125 31 -41 -14 -134 49 -134 91 0 5
-19 12 -41 16 -23 4 -51 13 -62 21 -12 8 -31 15 -42 15 -17 0 -18 -2 -5 -11
12 -9 12 -10 -3 -5 -10 3 -20 6 -22 6 -2 0 0 13 5 29 6 22 4 33 -9 46 -15 15
-14 16 22 10 24 -5 42 -3 52 5 8 6 18 9 24 6 5 -3 11 1 15 9 3 8 1 17 -4 20
-6 4 -10 24 -10 46 0 55 -24 78 -89 86 -46 5 -60 13 -109 59 -31 30 -59 54
-64 54 -4 0 -17 13 -29 29 -12 17 -28 27 -35 24 -8 -3 -21 0 -29 7 -8 7 -20 8
-27 4 -7 -5 -26 -9 -43 -9 -27 -1 -30 -5 -36 -40 -9 -53 36 -157 63 -149 13 4
16 1 12 -11 -9 -23 12 -58 47 -79 16 -9 29 -23 29 -30 0 -32 35 -57 83 -60 49
-2 71 9 46 25 -10 6 -5 9 16 9 21 0 26 -3 16 -9 -10 -7 -8 -11 10 -16 30 -9
38 -22 32 -46 -3 -12 -14 -19 -29 -19 -21 0 -24 -5 -23 -32 4 -92 28 -125 99
-132 34 -4 61 -13 75 -26 51 -48 68 -290 20 -290 -8 0 -15 -7 -15 -15 0 -9 -6
-15 -13 -13 -19 4 -87 -44 -87 -62 0 -9 -4 -20 -9 -25 -20 -22 -70 -125 -77
-159 -3 -20 -1 -48 5 -64 6 -15 13 -49 15 -75 3 -38 1 -47 -9 -43 -9 3 -23
-11 -38 -37 -14 -23 -34 -51 -46 -61 -12 -11 -21 -23 -21 -28 0 -19 -78 -97
-115 -115 -16 -8 -41 -21 -55 -29 -17 -10 -43 -13 -80 -10 -74 5 -180 -27
-180 -55 0 -5 8 -9 19 -9 14 0 17 -6 13 -25 -3 -20 0 -25 16 -25 24 0 52 -35
52 -65 0 -11 -7 -31 -15 -45 -8 -14 -24 -45 -37 -70 -25 -48 -93 -120 -113
-120 -8 0 -15 -4 -17 -9 -1 -5 -20 -12 -40 -16 -35 -7 -39 -5 -48 20 -6 15 -8
35 -5 45 3 9 -1 23 -10 30 -25 21 -20 33 43 95 17 17 32 39 32 48 0 9 5 19 11
23 6 3 9 15 6 25 -3 12 0 19 9 19 16 0 19 16 4 25 -16 10 -12 55 5 55 8 0 15
5 15 10 0 6 -11 10 -25 10 -18 0 -23 4 -18 16 5 14 3 14 -16 3 -16 -11 -25
-11 -39 -2 -23 14 -159 10 -174 -5 -7 -7 -18 -12 -25 -12 -18 0 -16 -7 8 -33
11 -12 18 -30 15 -40 -2 -11 4 -26 15 -35 25 -22 24 -30 -5 -43 -13 -6 -29
-22 -35 -36 -9 -20 -14 -23 -26 -13 -11 9 -20 8 -44 -9 -16 -12 -34 -21 -39
-21 -11 0 -24 -29 -19 -43 1 -5 -6 -13 -15 -18 -9 -5 -19 -23 -23 -39 -4 -17
-10 -28 -15 -25 -4 3 -10 -5 -13 -17 -5 -17 -9 -19 -20 -9 -12 9 -16 7 -21
-11 -8 -32 -7 -40 3 -34 5 4 12 0 14 -6 4 -8 8 -4 12 10 8 24 25 30 25 8 0 -9
14 -14 45 -14 57 -2 78 -13 105 -56 15 -25 19 -44 15 -68 -4 -24 0 -39 15 -56
11 -13 24 -21 29 -17 14 8 34 -32 24 -48 -4 -6 -8 -16 -8 -22 0 -5 -22 -17
-48 -26 -62 -20 -107 -70 -132 -145 -10 -32 -22 -66 -26 -74 -4 -8 -17 -37
-29 -63 -11 -27 -30 -58 -41 -70 -10 -11 -19 -24 -19 -29 0 -4 -6 -8 -14 -8
-8 0 -18 -9 -21 -20 -3 -11 -11 -20 -16 -20 -5 0 -9 -11 -9 -25 0 -14 5 -25
10 -25 6 0 10 -9 10 -20 0 -15 7 -20 25 -20 18 0 25 -5 25 -20 0 -11 5 -20 11
-20 7 0 9 -9 6 -21 -6 -24 42 -79 71 -79 24 -1 88 -42 112 -73 19 -24 27 -50
29 -95 1 -7 5 -10 11 -7 5 3 10 -1 10 -11 0 -13 5 -11 20 9 13 16 27 24 36 20
23 -9 74 -63 74 -79 0 -8 4 -14 8 -14 4 0 8 -23 7 -51 -1 -27 2 -52 7 -55 4
-3 5 -22 2 -43 -6 -35 -4 -39 31 -59 20 -12 33 -27 30 -32 -3 -6 -2 -10 4 -10
5 0 14 8 20 17 9 16 11 16 28 2 10 -9 29 -19 43 -23 31 -8 80 -53 100 -91 8
-17 29 -44 47 -62 30 -30 36 -32 80 -27 26 4 65 17 85 30 21 13 42 24 48 24 5
0 25 15 43 33 32 30 33 35 31 97 -3 64 19 141 62 222 20 37 16 123 -8 153 -20
26 -23 45 -8 45 6 0 10 6 10 14 0 8 14 23 30 33 17 9 30 21 30 26 0 4 5 5 10
2 6 -3 10 -1 10 4 0 6 6 11 14 11 7 0 27 7 42 15 34 18 60 19 70 4 4 -7 9 -8
17 0 6 6 16 7 27 1 10 -5 27 -4 45 5 17 7 38 16 48 19 9 3 21 16 26 28 5 13
35 49 66 82 32 32 63 74 71 92 8 19 18 34 22 34 4 0 13 12 19 28 28 66 83 129
170 190 48 35 180 107 213 117 25 8 89 34 145 61 53 25 158 54 265 74 58 11
124 27 147 36 57 22 73 14 73 -35 0 -22 5 -43 10 -46 7 -4 6 -13 -1 -27 -7
-12 -9 -61 -7 -124 2 -57 0 -105 -5 -107 -8 -2 21 -247 41 -333 11 -51 52
-125 65 -117 6 4 7 -19 3 -64 -7 -69 -1 -127 13 -119 3 2 7 -35 8 -82 2 -65
-1 -90 -13 -103 -15 -17 -39 -182 -29 -199 3 -5 11 -7 18 -4 25 9 46 -21 53
-74 7 -52 6 -53 -19 -50 -13 2 -32 10 -41 17 -34 29 -40 1 -27 -136 7 -70 17
-159 23 -198 16 -102 38 -123 58 -57 6 20 14 44 18 52 3 8 10 33 16 54 15 53
33 56 53 9 13 -32 14 -50 5 -112 -7 -49 -16 -79 -27 -87 -18 -13 -18 -11 14
-192 10 -53 12 -56 61 -54 34 2 42 -2 49 -21 5 -12 9 -26 9 -30 0 -5 8 -14 16
-20 18 -14 39 -135 41 -242 1 -38 9 -90 18 -114 21 -55 22 -110 2 -117 -38
-15 -2 -86 61 -117 27 -14 33 -24 43 -79 7 -35 20 -74 29 -88 19 -29 21 -39
12 -60 -4 -8 -4 -41 -1 -72 7 -55 6 -58 -15 -58 -12 0 -27 -6 -33 -14 -15 -18
-22 -161 -7 -146 14 14 27 13 24 -2 -2 -8 9 -14 25 -16 15 -2 27 1 27 7 0 6
11 11 25 11 18 0 23 4 18 16 -13 34 81 -75 104 -121 14 -27 30 -53 34 -56 10
-6 44 -67 59 -106 7 -18 4 -28 -15 -49 -15 -16 -25 -39 -25 -56 0 -18 -4 -27
-11 -23 -5 4 -19 -1 -29 -10 -15 -14 -21 -14 -41 -3 -13 7 -29 19 -37 26 -7 6
-19 12 -26 12 -7 0 -25 12 -39 26 -14 14 -31 23 -37 19 -6 -4 -9 -1 -8 7 2 10
-13 13 -58 13 -34 1 -68 6 -75 12 -19 14 -117 24 -124 12 -4 -5 -18 -8 -33 -7
-20 2 -27 -2 -29 -17 -1 -11 0 -14 3 -7 9 19 24 14 24 -7 0 -11 -11 -28 -25
-39 -24 -19 -36 -40 -15 -27 6 3 10 -4 10 -17 0 -39 -27 -101 -46 -109 -11 -4
-40 -27 -66 -52 -36 -34 -46 -50 -43 -68 3 -13 -1 -27 -8 -31 -9 -6 -9 -10 1
-17 8 -4 13 -11 13 -15 -2 -23 14 -37 38 -32 14 3 21 3 14 0 -7 -3 -9 -12 -6
-20 4 -12 8 -12 20 -2 11 9 16 9 24 -3 11 -18 11 -26 -1 -34 -5 -3 -7 -12 -4
-20 8 -19 -15 -49 -59 -79 -40 -28 -72 -28 -124 -1 -23 12 -43 14 -70 9 -21
-5 -44 -7 -50 -6 -7 2 -13 -2 -13 -7 0 -6 -21 -22 -47 -36 -27 -15 -40 -24
-30 -21 9 3 17 1 17 -4 0 -6 -8 -10 -18 -10 -11 0 -27 -9 -37 -20 -10 -11 -25
-20 -33 -20 -9 0 -23 -6 -31 -14 -9 -9 -47 -17 -89 -20 -136 -11 -220 -38
-247 -80 -21 -31 -31 -259 -15 -329 14 -59 46 -93 98 -103 41 -8 171 20 227
50 22 11 48 21 59 22 10 1 21 5 25 10 3 5 20 18 36 29 27 18 48 20 185 20 85
0 179 -3 208 -8 45 -8 63 -6 114 13 34 12 82 37 108 55 25 18 56 35 67 39 12
4 27 13 33 21 7 8 19 15 27 15 29 0 263 119 263 134 0 15 57 46 87 46 12 0 14
3 6 8 -6 4 -14 21 -16 37 -3 21 -9 30 -23 30 -13 0 -20 8 -22 25 -2 14 -8 29
-12 34 -6 5 -2 15 8 22 15 12 13 17 -28 56 -25 23 -47 40 -50 39 -2 -2 -9 5
-14 15 -6 11 -20 35 -33 54 -36 58 -22 148 33 208 19 21 34 46 35 57 1 15 2
16 6 4 5 -19 110 -33 130 -17 7 5 17 7 23 3 5 -3 10 1 10 10 0 12 7 16 27 13
15 -2 28 2 30 10 3 6 -4 12 -14 13 -14 0 -13 2 6 10 17 7 27 6 31 -2 4 -6 16
-8 27 -5 15 5 23 -1 33 -21 7 -16 13 -32 11 -36 -1 -5 2 -6 6 -4 5 3 17 -1 28
-9 10 -8 15 -14 10 -14 -5 0 -1 -6 9 -13 16 -12 17 -17 6 -36 -10 -20 -9 -27
13 -50 24 -25 49 -86 53 -126 8 -79 18 -133 30 -152 30 -47 8 -101 -50 -123
-15 -5 -27 -20 -31 -39 -4 -18 -32 -57 -66 -93 -32 -34 -59 -65 -59 -69 0 -4
-6 -12 -13 -16 -8 -4 -30 -33 -50 -64 -19 -31 -44 -63 -56 -71 -11 -8 -25 -26
-30 -41 -7 -17 -18 -27 -31 -27 -28 0 -25 12 10 48 33 35 38 52 16 52 -15 0
-76 -58 -76 -72 0 -5 -7 -8 -15 -8 -7 0 -18 -8 -24 -17 -5 -10 -13 -14 -18
-10 -4 5 10 25 32 44 79 70 199 179 228 206 l30 28 -26 14 c-64 33 -159 25
-170 -15 -4 -16 -14 -20 -47 -20 -23 0 -50 -5 -61 -10 -20 -11 -27 -40 -9 -40
6 0 10 -7 10 -15 0 -12 -16 -15 -81 -15 -79 0 -84 -1 -125 -35 -23 -19 -51
-35 -61 -35 -11 0 -31 -6 -46 -13 -22 -10 -27 -18 -25 -42 l3 -30 -70 -5 c-64
-5 -71 -7 -83 -32 -7 -16 -26 -31 -47 -38 -19 -6 -44 -23 -55 -37 -11 -14 -34
-31 -52 -37 -70 -25 -119 -57 -116 -74 3 -17 -10 -27 -113 -79 -67 -35 -129
-100 -129 -136 0 -21 -7 -28 -33 -35 -19 -5 -45 -20 -58 -33 -68 -66 -153
-139 -161 -139 -25 0 3 -26 33 -30 l34 -5 -47 -50 c-27 -27 -48 -55 -48 -60 0
-6 -13 -21 -29 -33 -28 -20 -46 -46 -71 -101 -8 -17 -7 -27 2 -38 9 -11 9 -16
-2 -23 -8 -5 -19 -5 -26 1 -17 14 -42 -20 -50 -69 -4 -23 -11 -42 -16 -42 -5
0 -3 -7 6 -15 8 -8 19 -15 24 -15 9 0 22 -22 22 -36 0 -3 -8 -4 -18 -2 -46 8
-94 -46 -79 -86 4 -10 1 -13 -9 -9 -22 8 -17 -17 13 -60 23 -33 25 -43 17 -66
-6 -15 -7 -36 -3 -46 14 -37 9 -62 -21 -100 -23 -29 -29 -47 -28 -78 1 -27 -4
-44 -15 -52 -33 -24 -20 -55 55 -126 40 -38 66 -69 58 -69 -30 -1 -52 -28 -52
-65 0 -22 -6 -39 -14 -42 -16 -6 -19 -39 -4 -48 6 -3 23 3 39 14 16 12 38 21
49 21 22 0 48 -34 57 -76 11 -50 38 -93 62 -99 12 -3 27 -14 33 -24 8 -16 5
-20 -16 -25 -13 -4 -23 -10 -20 -15 3 -4 -1 -20 -9 -35 l-15 -28 49 7 c48 6
50 6 66 -24 17 -33 18 -34 82 -31 40 1 101 -23 104 -42 1 -4 2 -13 3 -19 0 -6
10 -18 22 -25 18 -13 24 -12 47 6 14 11 28 20 32 20 3 0 18 12 33 26 15 14 47
35 70 46 24 12 46 27 49 35 3 7 13 11 22 9 19 -6 134 47 124 57 -3 4 -19 7
-35 7 -15 0 -28 5 -28 10 0 9 15 14 34 11 4 -1 13 2 20 7 38 31 350 39 466 12
69 -16 345 -70 356 -70 16 1 -40 29 -58 30 -9 0 -32 8 -50 19 -18 10 -71 25
-118 32 -47 7 -92 18 -100 24 -26 21 -123 42 -152 34 -16 -4 -30 -3 -34 3 -3
5 -23 7 -45 3 -25 -4 -48 -2 -67 7 -17 9 -36 12 -48 7 -10 -4 -33 -8 -51 -8
-17 -1 -35 -5 -38 -11 -3 -5 -19 -7 -34 -4 -23 5 -30 2 -35 -14 -7 -21 -36
-39 -36 -22 0 5 -20 -4 -44 -20 -24 -17 -49 -30 -55 -30 -20 0 -11 29 11 36
12 3 32 19 46 35 13 16 28 29 34 29 6 0 23 10 38 23 66 52 111 81 129 82 27 2
60 44 61 78 0 26 30 67 50 67 5 0 9 16 7 35 -1 25 -6 34 -15 30 -8 -3 -27 -5
-44 -5 -30 0 -30 -1 -14 -19 16 -17 15 -18 -36 -13 -29 2 -50 1 -47 -2 9 -10
-66 -86 -84 -86 -14 0 -47 -31 -47 -43 0 -11 -39 -47 -50 -47 -31 0 30 107 66
116 13 3 33 17 43 30 11 14 25 23 33 22 7 -2 13 6 14 17 1 11 4 27 7 35 3 8 8
27 11 43 4 18 13 27 25 27 22 0 56 46 41 55 -15 9 -2 25 21 25 11 0 19 7 19
16 0 10 -6 14 -14 11 -7 -3 -18 -1 -24 5 -7 7 -15 1 -26 -18 -14 -27 -15 -28
-16 -6 0 13 -6 35 -14 50 -11 22 -12 37 -3 76 12 55 32 68 53 37 20 -28 32
-27 45 5 11 31 5 42 -15 25 -12 -10 -14 -9 -12 6 2 10 10 17 20 15 10 -2 16 4
16 16 0 17 7 19 75 17 53 -2 75 1 72 9 -2 6 -15 12 -30 14 -17 2 -24 8 -21 17
3 7 -5 19 -18 26 -33 18 -58 21 -58 6 0 -6 -5 -4 -11 6 -15 26 -29 20 -29 -14
0 -16 4 -28 9 -25 5 3 15 -2 22 -11 11 -13 11 -15 1 -9 -16 10 -44 -12 -35
-28 4 -6 -1 -5 -11 3 -13 11 -19 12 -25 3 -4 -8 -11 -5 -19 8 -9 16 -9 20 0
20 8 0 9 3 1 11 -14 14 -4 59 13 59 7 0 11 6 8 14 -3 9 4 16 21 20 21 5 26 12
23 33 -4 31 -20 39 -39 21 -20 -19 -49 -16 -65 6 -21 29 -18 42 29 109 23 34
48 74 55 90 6 15 16 27 22 27 6 0 9 4 6 9 -4 5 -2 11 2 13 12 4 152 196 152
207 0 10 30 24 37 17 2 -2 -5 -24 -15 -48 -11 -23 -22 -59 -24 -78 -2 -29 0
-35 17 -35 11 0 23 -4 27 -10 4 -5 8 0 8 13 0 12 -4 22 -10 22 -5 0 -10 9 -10
20 0 16 5 19 28 16 57 -9 73 -18 70 -40 -2 -13 7 -29 21 -42 27 -23 21 -48
-10 -39 -11 4 -26 2 -34 -5 -19 -15 -12 -62 11 -75 10 -5 22 -14 25 -19 4 -5
12 -5 18 -2 16 10 26 -23 12 -37 -6 -6 -19 -12 -29 -12 -9 0 -16 -6 -14 -12 1
-7 -3 -13 -9 -13 -8 0 -9 -11 -5 -31 6 -30 5 -31 -23 -27 -20 3 -27 0 -24 -8
3 -7 0 -21 -5 -30 -7 -13 -4 -24 17 -47 68 -75 68 -75 151 -82 43 -4 105 -6
137 -5 83 3 83 3 83 -30 0 -30 -14 -40 -24 -17 -5 10 -7 10 -12 0 -3 -7 -14
-13 -23 -13 -26 0 -21 -55 9 -104 24 -39 24 -39 31 -15 4 13 7 19 8 12 1 -8
16 -10 49 -7 152 16 162 15 192 -6 17 -12 30 -28 30 -35 0 -8 15 -38 33 -67
19 -29 37 -61 40 -71 4 -11 16 -21 27 -24 15 -4 19 -11 15 -24 -3 -10 0 -28 8
-41 8 -13 18 -34 22 -48 4 -14 18 -41 31 -60 13 -19 24 -42 24 -52 0 -18 25
-72 152 -323 44 -88 90 -170 101 -182 18 -20 30 -23 95 -22 50 1 71 4 64 11
-5 5 -27 10 -49 11 -37 0 -38 0 -10 11 16 6 26 15 23 23 -4 8 3 13 17 13 12 0
31 7 41 15 18 14 17 15 -20 13 -43 -1 -94 25 -94 48 0 16 16 19 25 4 11 -17
37 -11 42 10 4 17 12 20 41 18 23 -2 37 2 40 11 4 11 -7 13 -56 7 -40 -4 -69
-3 -83 4 -17 9 -23 8 -33 -6 -8 -10 -18 -14 -25 -10 -21 13 -6 30 40 43 38 11
40 12 9 9 -19 -3 -50 -8 -67 -12 -27 -5 -33 -3 -33 10 0 9 7 19 15 22 8 4 15
13 15 21 0 8 -4 12 -9 9 -5 -4 -11 -1 -13 4 -2 6 -17 12 -33 14 -17 2 -34 4
-38 5 -5 0 -7 9 -5 18 1 10 -1 24 -5 31 -5 7 -4 12 2 12 6 0 11 5 11 10 0 6
-14 10 -31 10 -31 0 -31 1 -16 23 14 22 14 25 -4 40 -11 10 -26 17 -34 17 -15
0 -19 10 -16 42 2 11 -5 18 -14 18 -11 0 -15 5 -12 14 4 10 1 13 -7 10 -9 -3
-18 7 -25 27 -13 36 -8 45 29 52 16 3 10 5 -17 6 -46 1 -61 14 -43 36 10 12
10 18 1 29 -10 12 -5 14 33 14 26 0 46 -4 46 -10 0 -6 -7 -8 -15 -5 -8 4 -17
2 -20 -3 -4 -6 5 -10 19 -10 14 0 30 8 35 18 6 9 11 11 11 5 0 -9 16 -13 46
-13 37 0 45 -3 42 -16 -2 -13 -15 -17 -61 -17 -36 0 -56 -4 -54 -11 2 -6 19
-10 37 -8 19 1 37 -3 41 -10 13 -21 36 -17 48 9 15 33 20 27 25 -28 l4 -44 43
4 c27 2 48 10 59 23 10 13 24 19 40 16 24 -4 24 -5 -12 -27 -21 -13 -38 -29
-38 -37 0 -18 11 -18 36 1 10 8 28 15 38 15 11 0 37 12 59 27 21 15 46 28 55
30 42 7 75 20 67 25 -6 3 -32 0 -60 -8 -73 -19 -92 -18 -98 9 -8 29 -53 33
-60 5 -3 -11 -12 -18 -19 -16 -37 13 -4 82 45 93 32 8 33 12 10 37 -15 17 -15
18 1 18 9 0 19 7 22 15 4 9 19 15 40 15 39 0 44 -12 12 -27 -20 -9 -18 -11 25
-17 44 -7 53 -15 48 -48 0 -6 27 -18 84 -39 16 -5 13 -7 -13 -8 -29 -1 -31 -3
-23 -20 8 -15 22 -18 70 -18 69 1 77 -3 62 -31 -10 -19 -14 -20 -189 -39 -42
-4 -52 -9 -50 -22 3 -13 16 -16 83 -13 46 2 93 -2 110 -8 l30 -12 -45 -14
c-25 -7 -58 -14 -75 -14 -22 0 -26 -3 -17 -12 19 -19 14 -30 -10 -26 -19 2
-24 -2 -26 -25 -4 -30 21 -48 41 -28 6 6 24 11 39 11 16 0 40 7 53 16 24 15
26 15 44 -7 20 -25 13 -39 -21 -39 -10 0 -18 -6 -18 -13 0 -9 -13 -13 -41 -13
-22 1 -43 -2 -46 -6 -2 -5 2 -8 11 -8 8 0 17 -6 19 -12 4 -9 8 -10 14 -3 9 13
23 13 41 1 7 -4 16 -5 19 -2 7 7 33 -13 33 -25 0 -5 -13 -9 -29 -9 -17 0 -33
-4 -36 -10 -4 -6 6 -10 22 -10 42 0 60 -14 44 -34 -16 -20 0 -22 29 -4 22 14
39 3 22 -14 -9 -9 -8 -15 3 -28 12 -14 6 -17 -66 -33 -43 -10 -79 -21 -79 -25
0 -5 39 -4 87 0 81 7 118 0 100 -19 -6 -5 -17 -8 -60 -12 -5 -1 -5 -10 -2 -21
8 -25 -11 -51 -31 -43 -8 3 -14 0 -14 -6 0 -6 11 -11 25 -11 14 0 25 -4 25
-10 0 -5 5 -10 11 -10 5 0 8 4 5 9 -3 4 3 16 13 25 16 14 20 15 30 2 7 -8 10
-20 6 -26 -4 -6 19 -10 67 -10 l73 0 1 45 c0 24 6 51 13 58 9 11 8 17 -3 26
-20 17 -26 59 -9 72 15 13 9 48 -13 65 -11 9 -11 17 5 47 16 31 16 37 4 50
-17 16 -9 77 9 77 7 0 7 4 1 13 -20 25 -22 61 -5 89 12 22 14 30 4 40 -9 9 -8
16 5 30 13 15 15 23 6 36 -10 18 -1 62 14 62 26 1 33 17 22 49 -10 28 -9 34 7
46 17 13 17 14 2 15 -27 0 -30 18 -8 40 30 30 72 26 98 -9 12 -16 32 -31 44
-33 29 -4 35 -39 12 -62 -20 -21 -14 -29 27 -30 27 -1 36 -8 60 -52 16 -28 40
-61 53 -73 60 -56 201 -44 221 19 3 11 13 20 21 20 8 0 14 5 14 10 0 6 6 10
13 10 16 1 57 35 57 49 0 6 5 11 10 11 6 0 10 -5 10 -11 0 -8 4 -8 15 1 12 10
15 7 21 -14 7 -28 11 -30 34 -16 12 7 11 13 -10 35 -20 22 -32 26 -62 23 -32
-3 -38 0 -38 15 0 16 5 18 30 14 16 -4 32 -2 35 3 10 16 35 12 35 -5 0 -8 5
-15 10 -15 12 0 12 2 0 34 -8 23 -7 26 15 32 14 4 32 1 40 -6 19 -15 66 -5 59
13 -7 20 44 42 101 43 28 1 69 5 91 9 35 6 43 4 56 -14 8 -11 18 -18 22 -14 4
4 4 0 1 -9 -4 -9 -1 -19 4 -23 14 -8 4 -25 -15 -25 -8 0 -14 7 -14 15 0 20
-18 19 -87 -4 -32 -11 -75 -22 -96 -26 -21 -3 -35 -10 -32 -15 3 -5 19 -5 38
1 17 5 71 9 118 9 95 0 149 8 149 21 0 5 -6 9 -14 9 -25 0 -16 50 13 64 28 14
136 28 145 19 9 -9 -43 -33 -71 -33 -18 0 -23 -4 -20 -14 3 -8 -1 -17 -9 -20
-22 -8 -17 -25 11 -32 14 -3 25 -10 25 -14 0 -10 -48 -22 -60 -15 -12 7 -60
-12 -60 -25 0 -5 11 -10 25 -10 25 0 25 0 5 -20 -25 -25 -25 -40 0 -40 11 0
20 -5 20 -11 0 -7 18 -9 47 -7 48 3 75 -17 31 -24 -17 -2 -22 -9 -21 -26 2
-19 -2 -22 -30 -23 -17 0 -45 -2 -62 -4 -21 -3 -26 -2 -15 5 8 5 11 10 6 10
-5 0 -3 6 3 14 8 10 9 20 2 33 -5 10 -13 27 -17 38 -5 15 -8 16 -11 5 -5 -19
-59 -44 -79 -36 -9 3 -21 3 -27 -1 -7 -4 -21 -7 -32 -8 -11 0 -25 -12 -33 -28
-10 -21 -18 -26 -33 -22 -22 7 -25 -7 -6 -24 10 -8 17 -7 25 1 9 9 12 8 12 -5
0 -9 -4 -17 -10 -17 -5 0 -10 -5 -10 -11 0 -8 22 -10 75 -5 70 6 75 6 75 -13
0 -23 -39 -39 -50 -21 -5 8 -10 9 -14 1 -4 -6 -20 -8 -36 -4 -18 3 -36 0 -45
-7 -12 -10 -18 -10 -30 0 -12 10 -16 10 -20 -1 -10 -29 7 -69 30 -69 9 0 12 6
9 15 -4 10 0 15 11 15 12 0 16 -6 12 -19 -4 -17 1 -18 47 -15 53 4 61 4 161 3
33 0 69 3 79 7 12 5 17 4 13 -3 -6 -9 41 -38 49 -30 2 2 5 14 7 28 3 16 13 27
33 34 16 6 42 20 57 32 17 13 35 19 48 16 18 -5 20 -3 14 17 -6 19 -4 21 13
16 15 -5 24 -1 32 14 6 11 15 18 21 15 14 -9 29 4 22 21 -4 11 -9 12 -19 3 -7
-6 -18 -8 -24 -4 -12 7 -14 26 -2 24 19 -3 58 2 70 9 16 11 5 42 -15 42 -9 0
-21 -8 -28 -17 -16 -21 -43 -25 -78 -11 l-28 11 26 17 c21 14 23 18 11 23 -23
9 -20 27 4 27 11 0 23 7 27 16 4 12 7 13 14 3 6 -11 9 -10 14 4 6 13 11 14 26
7 10 -6 30 -8 44 -4 20 5 23 9 14 20 -6 8 -18 14 -25 14 -23 0 -16 14 21 38
19 12 48 22 64 22 17 0 32 3 34 8 4 8 -30 44 -38 40 -3 -2 -12 9 -19 24 l-15
27 45 -6 c46 -6 55 1 28 22 -14 10 -14 15 -3 33 11 17 11 24 1 34 -16 16 -15
38 2 38 9 0 12 7 10 18 -4 12 4 21 25 29 25 9 30 16 28 39 -2 27 1 29 35 29
45 0 57 11 32 29 -24 18 -13 29 26 28 40 -1 34 19 -8 30 -51 13 -41 38 15 38
37 0 44 3 35 12 -22 22 -14 75 14 97 33 26 24 40 -21 34 -19 -3 -35 -1 -35 4
1 13 73 41 109 41 23 1 42 9 58 26 28 31 29 52 3 68 -26 16 -25 24 3 33 13 4
17 8 10 12 -19 7 -16 30 5 38 16 6 16 7 0 16 -14 8 -15 14 -6 34 13 29 74 55
129 55 40 0 41 0 27 23 -8 12 -14 36 -13 52 1 17 -5 38 -13 47 -16 19 -9 38
14 38 9 0 14 5 12 12 -3 7 1 28 8 47 9 27 18 36 36 37 42 1 49 4 43 15 -4 6
-13 8 -21 5 -21 -8 -17 12 6 24 11 6 31 8 46 4 22 -6 25 -4 22 12 -3 14 -12
19 -36 18 l-32 -2 22 18 c12 10 29 15 37 12 10 -4 13 -1 8 11 -4 11 -1 17 7
17 9 0 12 14 10 48 -2 48 20 102 42 102 15 0 24 68 12 98 -11 32 -1 45 31 38
l26 -6 -27 21 c-33 24 -36 54 -9 69 18 9 19 12 5 38 -10 20 -13 47 -8 100 4
51 2 78 -7 88 -9 11 -9 18 -1 26 6 6 8 31 5 63 -3 29 -1 61 5 72 7 12 7 24 2
29 -6 6 -5 31 1 64 23 119 23 127 0 135 -15 4 -21 15 -21 34 0 15 -9 38 -20
51 -11 13 -20 34 -20 47 0 16 -7 27 -20 30 -20 5 -24 13 -21 44 1 10 -8 19
-24 23 -14 4 -33 14 -43 24 -21 21 -127 76 -165 85 -15 4 -27 12 -27 17 0 6
-21 10 -47 10 -33 0 -53 6 -68 20 -17 16 -29 19 -73 13 l-52 -6 0 -48 c0 -47
0 -48 69 -97 79 -58 196 -158 295 -252 51 -48 77 -83 102 -137 19 -40 34 -85
35 -100 1 -15 4 -39 8 -53 4 -13 3 -47 -1 -75 -4 -27 -10 -77 -13 -110 -6 -64
-26 -137 -53 -195 -9 -19 -15 -39 -14 -43 1 -4 -5 -21 -13 -37 -8 -16 -15 -40
-15 -53 0 -14 -7 -27 -15 -31 -16 -6 -21 -36 -5 -36 5 0 7 -6 4 -14 -9 -25
-57 -9 -91 31 -45 53 -45 114 2 126 18 4 18 5 -2 6 -51 3 -66 123 -19 153 6 4
1 11 -14 17 -14 5 -19 10 -12 10 20 1 14 31 -10 51 -20 16 -21 21 -10 40 10
17 10 23 -2 35 -10 10 -12 27 -9 55 4 25 2 40 -5 40 -13 0 -46 85 -39 98 4 4
-7 23 -23 41 -17 18 -30 40 -30 51 0 10 -6 20 -14 23 -8 3 -12 14 -10 24 3 10
-11 41 -31 71 -19 30 -35 58 -35 63 0 5 -5 9 -11 9 -27 0 22 -317 66 -432 8
-20 28 -94 46 -165 42 -172 45 -346 10 -493 -5 -19 -9 -42 -9 -50 -2 -59 -45
-150 -71 -150 -10 0 -21 -7 -25 -15 -3 -8 -12 -15 -21 -15 -17 0 -95 -78 -95
-96 0 -14 -43 -54 -58 -54 -6 0 -16 -9 -22 -20 -7 -13 -21 -20 -41 -20 -26 0
-28 -3 -20 -18 15 -29 1 -38 -81 -52 -43 -7 -83 -19 -89 -26 -12 -15 -51 -19
-63 -7 -4 4 3 16 16 26 l23 18 -35 -7 c-19 -4 -46 -15 -59 -25 -13 -11 -30
-19 -37 -19 -8 0 -22 -4 -32 -9 -9 -5 -43 -17 -74 -26 -53 -15 -57 -19 -47
-37 6 -11 8 -25 6 -32 -6 -15 -93 -21 -101 -7 -4 5 -30 1 -61 -10 -30 -10 -74
-19 -99 -19 -38 0 -43 -2 -39 -19 7 -26 -17 -38 -33 -16 -10 13 -20 16 -41 10
-15 -4 -57 -9 -93 -11 -43 -4 -79 -13 -109 -30 -24 -13 -49 -24 -56 -24 -7 0
-18 -6 -25 -14 -6 -8 -18 -12 -26 -9 -7 3 -17 -2 -20 -12 -5 -11 -14 -15 -30
-11 -28 7 -54 -2 -54 -19 0 -7 -18 -15 -39 -19 -22 -3 -46 -13 -55 -21 -17
-17 -46 -20 -46 -5 0 6 4 10 9 10 18 0 91 54 91 67 0 7 10 13 23 13 26 0 118
34 151 55 12 8 54 24 92 34 38 11 109 33 157 50 48 17 99 31 113 31 28 0 54
47 33 61 -7 4 -17 23 -24 43 -11 31 -10 36 2 36 8 0 13 3 11 8 -3 4 -11 22
-19 40 -11 27 -19 33 -36 29 -13 -2 -23 0 -23 4 0 5 -6 9 -12 9 -7 0 -22 14
-33 30 -21 32 -38 41 -29 15 10 -24 -14 -43 -49 -42 -46 3 -44 36 3 52 l35 13
-29 7 c-20 6 -31 4 -34 -3 -7 -21 -20 -13 -15 8 3 11 0 20 -6 20 -6 0 -11 -4
-11 -10 0 -5 -7 -10 -16 -10 -14 0 -15 2 -3 17 11 13 11 17 2 20 -7 3 -13 16
-13 29 0 22 -10 29 -33 25 -5 -1 -6 7 -2 18 3 11 8 42 10 68 2 26 6 56 10 65
8 21 -22 68 -44 68 -9 0 -27 12 -40 25 -13 14 -32 25 -42 25 -10 0 -19 5 -19
10 0 6 -9 10 -20 10 -11 0 -20 7 -20 15 0 8 5 15 10 15 6 0 18 15 26 34 15 31
15 34 -2 54 -12 14 -20 18 -25 10 -4 -6 -9 -2 -14 11 -3 11 -11 21 -16 21 -5
0 -9 8 -9 18 0 19 -37 42 -66 42 -8 0 -12 5 -9 10 4 6 1 17 -5 25 -10 12 -10
18 -1 29 7 8 11 31 11 53 -2 46 2 67 17 84 5 8 13 27 17 42 4 15 14 31 24 34
9 3 34 23 55 45 21 21 44 38 51 38 7 0 21 9 32 21 10 12 52 37 92 56 39 18 72
38 72 43 0 10 84 50 104 50 6 0 27 13 46 29 19 15 45 31 57 35 11 4 24 13 27
21 3 8 15 15 26 15 12 0 20 7 20 16 0 10 5 14 15 10 9 -3 20 3 27 14 7 11 20
20 29 20 24 0 77 67 106 133 7 15 19 27 27 27 8 0 26 15 40 33 14 17 32 39 40
47 8 8 20 27 27 43 7 15 19 27 27 27 8 0 12 6 8 15 -3 8 0 14 6 12 6 -1 14 7
17 18 3 11 14 32 25 47 23 35 15 64 -14 48 -14 -8 -20 -8 -20 0 0 6 -8 10 -18
8 -11 -2 -27 3 -36 11 -12 10 -20 11 -24 4 -14 -21 -54 -35 -65 -24 -16 16
-22 14 -56 -15 -17 -14 -35 -23 -41 -19 -5 3 -12 -6 -16 -20 -7 -27 -48 -45
-65 -28 -12 12 -59 5 -59 -8 0 -5 -10 -14 -22 -19 -13 -6 -30 -14 -38 -18 -8
-5 -44 -24 -80 -42 -36 -18 -75 -43 -88 -55 -12 -12 -53 -37 -91 -55 -39 -19
-68 -37 -65 -42 3 -4 -6 -8 -19 -8 -14 0 -30 -7 -37 -15 -7 -8 -26 -14 -44
-14 -17 1 -47 -3 -66 -7 -19 -5 -50 -8 -67 -6 -27 3 -33 7 -33 28 0 20 -5 24
-29 24 -17 0 -32 4 -36 9 -3 5 -19 12 -35 16 -17 4 -30 10 -30 15 0 5 -12 10
-27 12 -23 2 -28 8 -30 35 -2 18 4 38 12 47 19 18 19 40 1 55 -10 8 -16 9 -21
1 -3 -5 -17 -10 -29 -10 -13 0 -29 -7 -36 -15 -7 -8 -26 -15 -42 -15 -16 0
-36 -7 -44 -15 -9 -8 -27 -15 -41 -15 -14 0 -34 -9 -43 -20 -18 -20 -18 -20
-46 12 -15 18 -31 32 -37 30 -15 -4 -76 21 -71 30 3 4 -1 8 -10 8 -8 0 -16 -4
-18 -9 -1 -5 -16 -11 -33 -13 -28 -3 -30 -1 -30 32 0 27 -4 35 -17 34 -22 -2
-23 9 -3 26 8 7 15 23 15 36 0 24 15 40 24 26 8 -14 56 -2 56 14 0 8 -4 14
-10 14 -5 0 -10 -4 -10 -10 0 -5 -7 -10 -15 -10 -18 0 -20 16 -3 26 7 4 43 8
81 8 53 1 72 5 81 19 7 9 26 17 42 17 16 0 40 9 54 20 14 11 34 20 46 20 26 0
84 28 84 40 0 15 33 28 85 35 27 3 56 12 65 20 9 8 22 15 28 15 19 0 63 43 58
57 -3 7 -1 15 4 18 6 4 10 16 10 27 0 12 5 36 12 54 16 46 -2 87 -34 79 -53
-13 -129 -11 -149 3 -12 8 -37 17 -57 19 -21 3 -40 9 -43 15 -7 11 -61 7 -70
-6 -8 -10 -70 -11 -166 -1 -45 5 -73 4 -73 -2 0 -11 -62 -4 -70 8 -3 5 -27 10
-53 13 -46 4 -147 47 -175 73 -7 7 -18 13 -23 13 -5 0 -9 5 -9 11 0 6 8 8 20
4 10 -3 36 -2 57 4 21 5 83 11 138 12 55 2 108 6 117 11 10 5 37 10 60 13 193
20 272 44 199 60 -43 9 -59 31 -29 40 50 15 88 38 93 56 4 10 12 19 19 19 6 0
17 5 23 11 26 26 209 80 283 83 41 2 98 7 126 11 34 5 54 4 58 -4 4 -6 17 -11
29 -12 21 0 21 -1 -3 -11 -14 -5 -38 -17 -55 -26 -16 -9 -55 -19 -85 -22 -30
-3 -53 -9 -52 -14 2 -5 -3 -13 -12 -18 -20 -11 -21 -38 -2 -38 17 0 38 24 29
33 -7 7 29 10 83 7 35 -1 142 28 246 67 83 32 118 27 118 -17 0 -16 4 -31 9
-34 4 -3 12 -20 16 -38 9 -38 7 -32 28 -80 10 -21 29 -45 42 -54 24 -16 27
-16 39 1 9 12 12 40 10 83 -2 42 2 76 11 96 8 17 14 47 14 66 0 19 0 81 1 136
0 56 -4 114 -10 128 -5 15 -10 63 -10 106 l0 79 -60 27 c-33 15 -60 33 -60 40
0 8 -15 21 -32 29 -60 29 -93 48 -120 71 -15 12 -48 30 -73 40 -40 15 -48 15
-56 3 -10 -16 -12 -56 -2 -46 7 8 33 -38 33 -59 0 -7 6 -17 13 -21 6 -4 25
-27 41 -50 16 -24 33 -43 38 -43 4 0 17 -14 27 -30 15 -26 17 -38 8 -75 -7
-30 -16 -45 -26 -45 -9 0 -24 -9 -34 -20 -19 -22 -14 -69 11 -108 22 -34 6
-42 -94 -47 -122 -7 -171 -13 -194 -25 -10 -5 -36 -10 -57 -10 -21 0 -58 -6
-83 -12 -25 -6 -73 -11 -108 -12 l-63 -1 7 27 c6 30 8 28 -59 33 -59 4 -61 43
-2 43 26 0 47 10 80 37 25 20 45 42 45 50 0 7 3 22 6 32 4 14 4 15 -4 4 -5 -7
-15 -10 -22 -6 -8 5 -21 -3 -34 -20 -13 -17 -28 -25 -34 -21 -14 8 -16 46 -3
46 4 0 11 16 14 35 6 37 -16 95 -36 95 -6 0 -1 7 11 16 17 12 35 14 66 10 37
-6 48 -3 85 25 24 17 39 34 35 38 -5 4 -34 15 -64 24 -61 18 -140 12 -177 -14
-44 -31 -101 -88 -108 -108 -8 -27 -32 -27 -60 2 -29 28 -53 47 -59 47 -10 0
-110 62 -136 84 -40 34 -66 45 -81 36 -8 -5 -19 -5 -26 1 -6 6 -40 17 -74 25
-61 14 -62 14 -113 -14 -92 -52 -123 -47 -132 21 -3 29 1 46 18 70 12 18 26
34 31 36 4 1 21 30 37 62 l29 59 -25 -3 c-14 -2 -29 -8 -32 -14 -4 -6 -16 -13
-27 -17 -11 -3 -44 -30 -72 -59 -29 -30 -80 -67 -119 -87 -38 -19 -74 -39 -81
-45 -7 -5 -19 -16 -27 -22 -8 -7 -36 -20 -61 -28 -41 -14 -47 -14 -67 0 -28
19 -38 19 -38 0 0 -8 5 -15 10 -15 6 0 10 -4 10 -10 0 -5 -15 -10 -34 -10 -19
0 -42 -7 -51 -16 -11 -11 -19 -13 -28 -6 -15 12 -68 15 -144 8 -55 -5 -56 -5
-101 60 -9 14 -14 15 -18 7 -7 -16 -36 -17 -52 -1 -8 8 -14 5 -23 -15 -16 -36
-41 -36 -37 -1 3 30 -18 45 -25 17 -3 -14 -4 -13 -2 2 1 11 6 29 10 40 5 16 5
17 -4 5 -12 -17 -13 -16 -35 27 -11 23 -16 59 -16 127 0 52 -4 106 -10 121 -9
23 -13 25 -46 19 -30 -6 -36 -4 -41 15 -3 11 -12 21 -20 21 -9 0 -13 -6 -9
-15 3 -8 2 -15 -3 -15 -5 0 -14 -20 -21 -45 -7 -25 -16 -43 -19 -39 -10 10
-27 260 -21 316 4 38 7 47 12 31 9 -34 28 -28 28 9 0 41 9 32 12 -13 4 -59 88
-168 147 -191 14 -5 42 -12 61 -14 59 -6 100 -16 106 -26 3 -5 0 -9 -7 -7 -8
1 -22 1 -31 0 -16 -1 -15 -4 4 -23 13 -13 27 -23 33 -23 5 -1 23 -7 39 -13 21
-9 38 -10 55 -3 14 5 33 10 41 10 8 0 24 2 35 3 11 1 45 1 76 0 47 -2 58 -5
62 -21 5 -19 28 -23 43 -8 4 4 18 7 31 7 12 0 23 3 23 8 0 4 55 5 122 4 84 -3
156 2 228 13 104 18 105 18 148 64 42 45 102 124 102 135 0 3 16 38 35 77 19
40 35 79 35 88 0 26 35 110 101 246 16 33 29 66 29 73 0 6 4 12 9 12 5 0 13
25 16 55 5 38 13 59 25 65 34 18 195 32 239 20 47 -12 63 -32 86 -110 9 -30
30 -89 46 -130 16 -41 29 -83 29 -92 0 -9 25 -50 55 -90 30 -40 62 -87 70
-104 23 -49 118 -104 178 -104 18 0 38 -5 45 -12 14 -14 208 -17 377 -6 104 7
365 63 365 78 0 4 -61 -6 -136 -21 -96 -19 -169 -28 -247 -28 -61 -1 -108 1
-106 3 2 3 63 9 134 15 132 10 231 30 295 58 47 21 46 20 19 42 -13 11 -19 20
-13 21 10 0 30 73 25 94 -5 23 12 47 28 41 13 -4 24 3 35 20 9 14 25 25 36 25
10 0 22 5 25 10 3 6 16 10 28 10 12 0 30 7 41 15 13 10 24 11 36 5 10 -5 20
-6 24 -3 3 4 22 7 41 8 26 0 37 -4 41 -18 13 -42 23 -7 40 143 8 71 15 79 62
71 20 -3 55 -4 77 -1 51 6 153 -11 164 -28 10 -16 63 -12 68 5 2 6 -6 14 -19
18 -24 7 -52 17 -91 36 -13 6 -27 25 -33 42 -10 35 8 30 -186 52 -56 7 -70 12
-84 33 -13 19 -18 22 -25 11 -7 -12 -10 -11 -21 2 -13 16 -96 49 -127 49 -9 1
-29 7 -46 15 -29 14 -28 14 30 9 33 -3 68 -8 78 -10 9 -3 17 -2 17 3 0 5 -21
14 -47 21 -27 7 -70 19 -98 27 -27 7 -104 16 -170 20 -150 7 -286 24 -302 37
-9 7 -13 7 -13 0 0 -11 -77 5 -97 20 -18 14 23 54 72 71 22 7 39 18 38 24 -1
6 18 14 42 18 26 3 50 14 57 24 7 10 32 22 55 25 53 9 98 46 89 73 -8 26 -93
69 -186 94 -25 7 -51 17 -58 22 -19 15 -213 -1 -233 -19 -13 -12 -18 -12 -21
-3 -5 16 -153 -13 -215 -42 -48 -23 -101 -74 -109 -105 -5 -18 -64 -64 -64
-49 0 3 -13 -1 -30 -10 -16 -9 -30 -23 -30 -33 0 -21 -37 -56 -42 -40 -3 8
-10 8 -24 0 -17 -10 -17 -11 -1 -12 21 0 22 -28 1 -58 -11 -16 -14 -32 -9 -50
4 -15 9 -50 11 -78 l4 -51 -52 -17 c-74 -24 -238 -34 -239 -15 -3 29 3 55 16
75 23 36 8 88 -36 123 -21 17 -46 31 -56 31 -10 0 -29 9 -43 20 -14 11 -33 20
-42 20 -10 0 -26 9 -36 20 -10 11 -40 24 -66 29 -26 5 -56 17 -66 27 -39 40
-134 104 -153 104 -7 0 -34 14 -60 30 -26 17 -58 30 -71 30 -12 0 -26 3 -30 7
-9 9 -41 13 -103 13 -31 -1 -53 3 -53 9 0 6 -18 11 -40 11 -22 0 -40 5 -40 10
0 6 -5 10 -11 10 -7 0 -18 8 -24 17 -13 17 -14 17 -34 -1 -18 -17 -21 -17 -36
-2 -15 14 -15 16 -1 16 9 0 15 4 13 8 -1 4 15 23 36 42 35 30 38 36 32 69 -17
97 -17 101 -1 107 9 3 16 15 16 25 0 29 30 69 51 69 13 0 21 9 25 29 5 21 11
27 24 24 10 -3 31 3 46 14 16 10 56 21 94 24 36 4 76 10 90 14 14 4 50 11 80
16 30 5 80 13 111 19 30 5 66 10 80 10 14 0 30 5 37 12 12 12 102 39 197 59
28 5 68 20 89 31 22 12 51 22 65 23 48 3 52 5 46 15 -3 6 4 10 17 10 13 0 32
7 42 15 11 8 25 15 32 15 7 0 25 5 41 11 15 6 53 13 83 16 30 2 59 8 65 12 5
5 37 16 70 26 95 27 300 130 352 178 13 11 46 28 75 38 28 11 54 22 57 27 12
17 67 49 101 58 43 12 117 10 190 -6 30 -6 71 -14 90 -17 19 -3 40 -9 46 -14
6 -5 78 -11 160 -13 85 -2 160 -9 174 -15 32 -15 60 -64 60 -104 0 -18 11 -55
24 -82 12 -28 29 -75 36 -105 7 -30 17 -63 21 -72 5 -10 11 -30 14 -45 2 -15
14 -59 25 -98 34 -108 48 -171 56 -243 4 -36 13 -72 20 -80 8 -7 14 -20 14
-28 0 -19 91 -153 124 -181 14 -13 26 -30 26 -39 0 -9 18 -36 40 -60 21 -23
42 -55 45 -71 9 -43 34 -93 45 -93 6 0 8 -4 5 -10 -3 -5 -5 -33 -5 -62 1 -29
1 -64 1 -78 2 -84 29 -98 173 -90 113 6 139 -2 144 -43 2 -15 9 -27 15 -27 30
1 95 40 119 72 26 34 26 37 13 81 -8 25 -19 55 -24 66 -9 15 -7 27 10 55 11
19 18 43 15 53 -3 10 -7 101 -11 203 -3 102 -10 223 -15 270 -20 165 -22 253
-8 295 7 23 19 40 28 40 8 0 18 5 22 11 4 6 18 9 32 7 18 -4 26 0 30 15 10 29
-2 49 -35 61 -16 5 -28 16 -27 22 2 7 -8 15 -22 19 -24 6 -25 10 -28 90 -2 47
1 101 7 121 6 19 11 65 12 102 1 37 6 70 11 73 5 3 4 12 -3 20 -7 9 -8 14 -1
14 6 0 14 -5 17 -11 4 -6 14 -8 22 -5 8 3 11 1 8 -4 -3 -6 5 -14 19 -20 15 -5
28 -20 32 -35 6 -24 16 -30 39 -25 6 1 7 -1 3 -5 -4 -4 0 -14 9 -23 14 -14 16
-14 25 1 5 9 14 17 21 17 19 0 41 41 28 50 -8 5 -9 14 -2 33 6 15 8 34 5 42
-4 9 0 15 10 15 8 0 21 10 27 22 9 17 9 24 -3 32 -15 11 -18 17 -18 37 0 6 -7
9 -15 5 -8 -3 -15 -1 -15 4 0 6 6 10 13 10 6 0 3 6 -7 12 -16 9 -22 6 -37 -13
-14 -19 -20 -21 -32 -11 -12 10 -16 10 -20 0 -4 -10 -8 -10 -16 2 -8 11 -13
12 -18 4 -12 -19 -45 -19 -85 -1 l-38 16 0 68 c0 37 -7 90 -15 117 -17 57 -19
90 -5 81 5 -3 29 0 52 8 24 8 66 13 93 12 32 -2 60 3 78 13 31 19 35 32 10 32
-13 0 -14 3 -6 8 15 10 19 46 9 88 -10 43 18 76 67 79 20 2 37 0 37 -5 0 -4 9
-10 20 -13 22 -6 29 -52 8 -59 -6 -2 -12 -19 -12 -36 -1 -26 4 -34 21 -39 13
-3 30 -3 38 1 9 3 15 0 15 -9 0 -7 8 -21 18 -31 11 -11 17 -33 17 -60 0 -30 3
-40 11 -33 7 6 22 6 38 -1 37 -14 46 -13 46 5 0 16 35 34 61 33 47 -3 60 3 58
25 -5 52 1 87 15 87 8 0 17 11 20 25 5 20 13 25 39 25 34 0 111 32 122 50 3 5
25 21 49 35 61 36 122 27 178 -26 23 -21 45 -36 50 -33 4 3 8 0 8 -6 0 -6 5
-8 11 -5 5 4 19 -1 29 -10 15 -13 30 -16 60 -12 28 4 40 1 40 -7 0 -10 8 -11
34 -2 32 10 34 12 28 45 -4 29 -3 33 11 28 12 -5 17 -1 17 13 0 22 35 44 53
33 6 -4 21 -9 31 -10 29 -5 31 -11 10 -30 -26 -24 -31 -109 -8 -134 10 -11 23
-19 30 -19 9 0 12 -9 9 -30 -3 -16 -7 -43 -10 -59 -3 -22 0 -28 12 -27 9 0 18
-5 20 -11 3 -8 -4 -13 -16 -13 -14 0 -21 -6 -21 -19 0 -10 6 -19 13 -18 54 2
68 -3 62 -23 -7 -22 5 -26 23 -8 9 10 16 9 29 -4 15 -15 19 -14 56 23 22 21
48 39 58 39 10 0 23 8 28 18 9 15 10 15 11 -5 0 -24 25 -32 32 -11 5 15 28 1
28 -18 0 -8 -8 -14 -17 -15 -37 -1 21 -18 65 -18 34 -1 45 -5 49 -19 3 -12 19
-22 46 -28 38 -8 42 -12 39 -35 -2 -17 3 -29 12 -32 9 -4 16 -15 16 -25 0 -19
44 -47 60 -37 5 3 22 -6 38 -20 17 -14 42 -25 59 -25 28 0 66 -18 144 -67 18
-12 41 -28 49 -35 8 -7 21 -11 29 -10 8 2 25 -2 38 -9 19 -10 26 -10 36 1 10
10 9 11 -2 5 -9 -5 -12 -4 -7 3 5 9 13 9 26 2 12 -7 28 -7 44 0 14 5 33 7 41
4 9 -4 24 1 34 10 13 12 20 13 23 6 8 -25 72 142 65 170 -3 11 -1 23 4 26 5 3
9 12 9 20 0 9 11 30 24 47 13 18 32 50 42 73 18 39 53 74 77 78 7 1 18 5 25
10 16 10 142 10 174 1 13 -4 39 -20 59 -36 20 -16 38 -26 41 -23 3 2 13 -8 23
-23 10 -15 24 -32 32 -36 23 -14 13 -107 -12 -107 -6 0 -28 -14 -48 -31 -30
-26 -36 -36 -31 -58 4 -14 16 -36 27 -48 11 -13 17 -29 13 -38 -4 -12 2 -20
24 -28 16 -6 31 -15 31 -19 2 -12 6 -27 9 -33 1 -3 3 -8 4 -13 0 -4 7 -14 14
-22 7 -8 21 -27 33 -42 26 -35 80 -41 72 -8 -3 11 -1 26 4 33 21 25 13 82 -14
111 -22 24 -24 32 -14 48 9 15 9 20 -4 24 -18 7 -20 31 -2 37 9 3 9 7 -1 20
-8 9 -11 21 -7 27 3 5 2 10 -3 10 -12 0 -25 47 -16 61 4 6 11 6 20 -2 15 -12
18 -5 15 36 -1 18 0 18 11 5 7 -9 26 -17 41 -18 15 -1 40 -13 55 -27 15 -14
30 -25 35 -25 4 0 12 -11 17 -25 26 -68 30 -15 30 379 0 314 -3 405 -12 409
-10 4 -10 6 0 6 9 1 12 27 12 96 0 91 -1 96 -23 104 -13 5 -56 7 -95 4 -71 -5
-73 -5 -115 29 -23 20 -52 38 -64 42 -13 4 -23 12 -23 18 0 7 -4 7 -12 1 -7
-6 -21 -13 -31 -16 -15 -6 -17 -3 -12 13 5 15 2 20 -11 20 -17 0 -17 1 1 13
10 8 15 19 11 25 -10 17 -24 15 -29 -5 -3 -16 -5 -16 -11 2 -4 11 -12 28 -17
39 -7 13 -7 16 0 11 18 -11 12 3 -10 24 -18 17 -99 38 -123 32 -4 -1 -14 4
-22 10 -12 10 -13 9 -8 -6 6 -15 3 -17 -19 -13 -15 3 -27 1 -27 -5 0 -6 -3 -7
-7 -4 -3 4 -13 -2 -21 -14 -9 -13 -21 -19 -33 -16 -11 3 -17 1 -14 -3 3 -5 -3
-11 -14 -15 -32 -10 -46 -32 -31 -50 10 -12 10 -15 0 -15 -9 0 -10 -3 -1 -14
6 -7 9 -20 6 -28 -4 -9 1 -18 9 -21 9 -4 16 -14 16 -24 1 -19 73 -59 89 -49 6
4 7 -5 1 -24 -6 -20 -5 -29 2 -27 6 1 14 -11 19 -26 5 -20 4 -27 -4 -24 -15 5
-40 -20 -55 -55 -10 -23 -9 -28 3 -28 18 0 18 -5 5 -31 -6 -10 -20 -19 -31
-19 -25 0 -114 47 -99 52 6 2 8 11 5 21 -4 9 -12 14 -19 10 -6 -4 -5 1 3 10 7
9 11 28 9 42 -4 17 -1 25 8 25 17 0 17 5 2 29 -11 18 -13 18 -24 3 -10 -13
-15 -14 -25 -5 -15 14 -39 6 -61 -21 -21 -25 -23 -40 -5 -33 10 4 12 -3 9 -24
-2 -16 -8 -26 -13 -23 -5 3 -18 -1 -30 -9 -16 -12 -25 -12 -44 -3 -33 15 -30
59 6 99 23 25 26 34 18 55 -5 14 -8 31 -5 39 5 11 -2 29 -44 113 -7 14 -12 16
-52 19 -10 0 -15 7 -13 14 4 9 -7 11 -41 9 -36 -3 -49 0 -65 16 -21 23 -41 88
-43 142 -1 28 -8 40 -35 58 -18 13 -39 29 -46 36 -19 19 -57 96 -47 96 5 0 6
14 4 31 -3 21 -7 27 -13 18 -6 -10 -10 -9 -15 6 -5 12 -3 20 5 23 9 3 9 7 0
18 -9 11 -9 18 -1 26 9 9 12 9 12 0 0 -20 17 -14 23 8 3 13 14 20 30 20 27 0
61 -26 52 -39 -2 -5 4 -16 15 -26 11 -10 20 -24 20 -32 0 -7 6 -13 14 -13 16
0 48 -88 35 -96 -13 -8 -11 -99 3 -128 6 -14 20 -28 32 -32 12 -3 28 -12 36
-19 18 -16 70 -8 70 11 0 7 -4 16 -10 19 -5 3 -10 28 -10 54 0 33 -6 56 -20
74 -11 14 -17 32 -14 41 3 9 1 22 -4 29 -14 16 -11 87 3 87 6 0 4 4 -4 9 -17
11 -6 31 18 31 9 0 22 5 28 11 6 6 28 12 49 13 37 2 49 -3 111 -54 14 -11 34
18 53 80 19 60 53 104 96 125 42 20 91 27 99 15 3 -4 23 -11 46 -15 42 -7 136
-54 109 -55 -12 -1 -11 -3 2 -11 10 -5 21 -28 24 -49 4 -22 12 -40 18 -40 22
0 38 -59 31 -115 -8 -64 9 -105 55 -132 16 -9 31 -24 31 -33 6 -79 60 -123
152 -121 34 0 63 6 71 14 24 23 55 94 62 139 4 23 13 52 20 63 12 16 14 184
14 945 l0 927 -29 -5 c-18 -2 -36 2 -48 13 -10 9 -38 30 -62 47 -24 16 -48 43
-54 59 -13 33 -22 35 -65 14 -37 -19 -47 -64 -37 -169 8 -92 -6 -114 -77 -118
-39 -1 -53 4 -91 33 -25 19 -52 48 -61 66 -24 51 -60 68 -136 66 -68 -2 -108
7 -175 38 -58 27 -125 40 -125 25 0 -7 -14 -28 -30 -46 -16 -18 -30 -36 -30
-40 0 -14 -87 -51 -110 -46 -14 2 -29 5 -33 5 -5 1 -6 5 -2 10 7 13 -27 31
-59 31 -20 0 -27 -8 -39 -42 -10 -30 -19 -42 -30 -40 -9 1 -21 -7 -27 -18 -15
-29 -36 -25 -72 14 -26 29 -37 34 -60 29 -24 -5 -27 -3 -22 11 5 12 0 19 -14
23 -22 5 -75 66 -93 107 -7 14 -16 26 -20 26 -16 0 -31 82 -20 107 10 21 17
23 88 23 43 1 104 2 136 4 39 2 61 -2 68 -10 6 -8 15 -11 20 -9 4 3 13 -4 19
-15 6 -11 18 -20 26 -20 9 0 24 -10 33 -22 21 -26 34 -29 130 -31 86 -2 112
13 130 78 12 46 -3 80 -45 95 -13 5 -24 16 -24 25 0 8 -11 22 -24 31 -14 8
-23 21 -21 27 3 7 1 18 -4 26 -8 12 -18 7 -56 -25 -71 -60 -75 -61 -149 -68
-58 -6 -68 -5 -63 8 5 13 2 13 -20 5 -15 -5 -32 -8 -39 -5 -6 2 -38 -1 -70 -7
-33 -7 -65 -12 -71 -11 -7 1 -20 2 -28 3 -9 0 -32 18 -53 38 -20 21 -40 37
-44 35 -8 -2 -9 1 -12 31 0 6 -14 14 -31 15 -16 2 -27 0 -23 -4 4 -4 -3 -16
-15 -28 -22 -20 -56 -62 -104 -129 -18 -25 -23 -45 -23 -94 0 -51 -3 -64 -19
-73 -30 -15 -56 -12 -85 11 -25 19 -26 26 -22 77 5 58 -19 127 -49 138 -16 6
-37 62 -29 75 3 5 -2 12 -11 15 -12 5 -13 9 -4 20 9 11 8 18 -1 29 -6 8 -9 18
-6 23 6 10 -39 9 -72 -2 -12 -4 -39 -25 -60 -47 -33 -35 -43 -40 -94 -44 -47
-3 -56 -1 -51 11 3 9 -7 19 -30 29 -20 8 -39 19 -42 25 -5 8 -12 7 -22 -2 -12
-10 -17 -9 -24 5 -6 9 -17 17 -24 17 -8 0 -15 4 -15 8 0 4 -20 13 -45 20 -25
7 -45 16 -45 22 0 5 -14 10 -30 10 -25 0 -34 -6 -45 -32 -9 -22 -14 -27 -15
-14 0 15 -2 16 -15 6 -21 -18 -15 -56 8 -52 12 2 17 -4 17 -21 0 -14 3 -39 6
-56 5 -26 3 -31 -12 -32 -11 0 -14 -3 -6 -6 7 -2 12 -22 12 -45 0 -28 10 -56
30 -90 16 -26 30 -53 30 -59 0 -5 4 -8 9 -4 13 8 7 -35 -9 -65 -19 -37 -37
-44 -113 -44 -72 -1 -87 -10 -87 -53 0 -30 82 -70 114 -55 12 5 35 8 49 5 28
-6 71 -49 62 -63 -3 -4 2 -11 10 -14 11 -4 14 -13 9 -30 -3 -13 -1 -33 5 -44
10 -20 12 -20 56 -3 94 36 95 36 96 204 2 155 1 151 47 150 6 -1 12 3 12 8 0
22 27 3 102 -73 66 -68 83 -91 89 -125 5 -23 24 -63 44 -88 19 -26 35 -53 35
-61 0 -17 29 -18 82 -2 31 9 44 9 59 0 10 -7 25 -12 33 -12 28 0 37 -25 25
-71 -6 -24 -11 -52 -12 -61 -1 -10 -6 -18 -12 -18 -6 0 -6 -3 1 -8 14 -9 34
-47 34 -64 0 -7 -10 -18 -23 -24 -12 -6 -46 -23 -75 -39 -49 -26 -64 -28 -180
-31 -139 -4 -179 7 -236 60 -16 14 -32 26 -35 27 -3 0 -18 2 -33 4 -15 2 -32
-3 -39 -11 -6 -7 -16 -11 -21 -8 -5 3 -21 1 -36 -4 -15 -6 -39 -13 -54 -16
-36 -8 -44 -38 -19 -73 23 -34 37 -108 22 -118 -6 -3 -9 -11 -6 -16 4 -5 2 -9
-3 -9 -4 0 -21 -19 -35 -41 -37 -56 -30 -100 19 -119 19 -8 34 -17 34 -22 0
-4 21 4 46 18 44 25 100 34 123 19 6 -3 21 -25 33 -48 19 -35 22 -58 22 -134
0 -51 2 -93 5 -93 4 0 12 -9 19 -21 10 -16 10 -24 1 -35 -8 -10 -8 -14 0 -14
20 0 11 -17 -31 -60 -23 -23 -59 -49 -80 -57 -21 -8 -35 -19 -32 -25 3 -5 -4
-12 -16 -15 -12 -3 -26 -17 -31 -30 -8 -21 -12 -22 -30 -12 -17 9 -23 8 -30
-2 -5 -8 -24 -13 -46 -12 -21 1 -30 -1 -20 -3 23 -7 22 -20 -3 -27 -11 -3 -20
-10 -20 -17 0 -6 5 -8 10 -5 17 10 11 -22 -7 -40 -13 -14 -14 -18 -3 -25 10
-6 4 -11 -21 -17 l-34 -9 30 -8 c24 -6 33 -3 46 13 19 24 35 27 42 9 4 -10 6
-10 6 0 1 18 21 15 21 -4 0 -14 3 -14 15 -4 12 10 15 10 15 0 0 -7 6 -10 14
-7 37 14 22 -81 -16 -103 -25 -14 -30 -13 -63 4 -20 11 -35 27 -35 38 0 11 -7
18 -20 18 -11 0 -29 6 -40 13 -16 9 -22 9 -28 0 -6 -9 -15 -6 -34 12 -17 16
-33 22 -47 18 -15 -4 -21 -1 -21 11 0 9 -5 16 -12 16 -6 0 -22 9 -34 21 -30
28 -94 18 -94 -15 -1 -25 -22 -56 -40 -56 -7 0 -10 -7 -6 -16 4 -11 -1 -18
-14 -21 -17 -4 -20 -14 -20 -53 0 -27 -2 -55 -5 -62 -6 -15 60 -95 75 -91 4 1
16 -7 25 -17 10 -11 15 -20 10 -20 -4 0 -2 -6 4 -14 6 -7 13 -35 16 -62 2 -27
4 -51 5 -53 0 -3 5 0 12 7 18 18 24 15 22 -15 -2 -39 -3 -40 -15 -20 -17 29
-83 5 -91 -33 -2 -8 -9 -20 -17 -26 -10 -7 -11 -17 -6 -30 4 -10 7 -22 7 -26
-1 -5 3 -8 8 -8 6 0 10 -21 10 -48 0 -39 -4 -49 -22 -57 -13 -6 -27 -20 -33
-32 -5 -13 -17 -23 -26 -23 -13 0 -18 -20 -28 -97 -6 -54 -12 -111 -14 -127
-2 -30 -5 -32 -73 -43 -30 -5 -33 -2 -44 34 -10 33 -18 57 -25 73 -2 3 -6 15
-10 28 -4 12 -14 22 -22 22 -8 0 -28 7 -45 16 -25 13 -35 14 -54 4 -12 -7 -35
-10 -50 -7 -21 4 -36 -2 -57 -19 -16 -13 -36 -24 -45 -24 -24 -1 -52 -24 -52
-43 0 -9 -16 -28 -35 -42 -19 -15 -34 -30 -34 -33 3 -19 -3 -23 -16 -12 -12
10 -15 9 -15 -6 0 -15 -3 -15 -25 6 -19 17 -22 26 -14 36 12 15 30 14 41 -1 5
-6 8 -3 8 7 0 9 -4 20 -10 23 -17 10 -11 25 9 25 11 0 23 5 26 10 3 6 -3 10
-15 10 -12 0 -18 5 -15 10 4 7 13 7 26 0 16 -9 26 -5 57 24 29 27 34 38 25 47
-10 10 -9 15 4 24 14 11 14 15 -7 43 -14 18 -27 28 -30 22 -4 -7 -12 -4 -22 7
-24 28 -40 62 -33 74 4 5 2 16 -4 23 -16 20 -4 42 35 66 37 21 69 26 78 12 10
-16 108 -7 121 11 7 10 17 17 24 17 6 0 11 6 11 14 0 7 7 19 15 26 8 7 15 23
15 36 0 15 -6 24 -15 24 -20 0 -19 17 1 28 12 7 1 12 -43 21 -69 15 -128 4
-240 -45 -17 -8 -42 -14 -55 -14 -24 -1 -73 6 -73 10 0 1 -12 4 -27 6 -17 3
-42 -5 -72 -23 -44 -26 -46 -30 -43 -66 2 -21 -1 -41 -7 -44 -14 -9 27 -21 77
-22 21 -1 36 -5 32 -10 -3 -5 11 -15 30 -21 28 -9 35 -17 35 -38 0 -21 2 -24
10 -12 8 12 10 11 10 -7 0 -13 5 -23 10 -23 11 0 14 -33 4 -43 -3 -3 -7 -25
-8 -49 -1 -32 -9 -50 -29 -70 -15 -15 -24 -33 -21 -41 8 -21 -28 -32 -42 -13
-6 9 -14 13 -17 9 -4 -3 -32 14 -64 38 -32 24 -76 53 -98 64 -23 11 -55 30
-72 43 -17 12 -36 22 -42 22 -6 0 -19 4 -29 8 -9 5 -30 15 -47 23 -22 11 -30
22 -31 42 -1 15 -9 36 -18 46 -13 15 -14 20 -4 24 7 2 10 7 6 11 -3 4 -32 -5
-65 -20 -71 -34 -140 -36 -201 -5 -24 12 -60 21 -86 21 -25 0 -55 4 -68 9 -13
5 -41 14 -63 21 -22 7 -62 23 -90 35 -130 58 -290 104 -390 112 -166 13 -673
5 -835 -13 -30 -3 -98 -1 -150 5 -89 11 -95 11 -122 -9 -15 -11 -33 -20 -41
-20 -7 0 -31 -16 -53 -36 -46 -43 -62 -50 -137 -59 -34 -4 -68 -16 -84 -28
-14 -12 -42 -21 -62 -22 -20 -1 -47 -8 -61 -17 -14 -9 -43 -19 -65 -23 -21 -4
-55 -14 -75 -24 -19 -10 -55 -24 -80 -31 -25 -7 -57 -24 -71 -37 -14 -13 -43
-27 -65 -30 -45 -7 -93 -40 -93 -66 -1 -17 -55 -57 -78 -57 -18 0 -85 -47
-108 -76 -15 -19 -36 -27 -84 -35 -35 -5 -84 -19 -109 -30 -33 -16 -50 -18
-66 -11 -61 28 -72 30 -99 16 -63 -34 3 -104 89 -95 6 0 21 10 34 21 16 14 39
21 77 22 29 1 61 2 71 2 9 1 17 -4 17 -11 0 -12 -115 -143 -202 -231 -36 -35
-53 -61 -53 -77 0 -17 -18 -44 -52 -80 -107 -110 -113 -120 -122 -220 -9 -96
-24 -165 -40 -190 -25 -38 -58 -147 -58 -190 1 -73 -3 -77 -67 -74 -32 1 -62
0 -67 -3 -5 -3 -26 -11 -47 -18 -30 -9 -41 -9 -53 1 -13 10 -17 10 -24 0 -6
-11 -8 -11 -12 0 -7 22 -137 19 -149 -3 -5 -9 -17 -24 -25 -33 -21 -21 -12
-30 16 -15 18 10 21 9 18 -2 -3 -7 -14 -14 -26 -16 -15 -2 -21 -10 -19 -24 1
-15 -5 -24 -23 -29 -14 -4 -18 -8 -10 -8 23 -2 -6 -19 -55 -31 -22 -6 -72 -27
-112 -46 -39 -20 -93 -41 -121 -48 -43 -12 -52 -11 -71 3 -19 15 -23 27 -23
87 -1 45 -7 84 -20 112 -22 50 -20 69 25 185 19 51 42 92 66 115 59 60 122
112 135 112 7 0 17 5 23 11 9 9 23 1 55 -29 115 -110 144 -126 240 -136 60 -6
70 -4 93 16 14 12 25 26 25 31 0 17 45 46 72 47 54 0 59 45 10 97 -20 22 -53
59 -72 81 -42 49 -73 62 -152 62 -60 0 -84 9 -122 46 -15 14 -42 23 -84 28
-51 6 -65 11 -79 33 -10 14 -36 46 -58 72 -51 57 -80 102 -77 118 4 20 -16 24
-65 12 -59 -15 -78 -36 -56 -61 8 -9 12 -21 9 -27 -3 -5 5 -13 19 -18 26 -8
26 -9 30 -138 5 -178 8 -172 -73 -174 -58 -1 -70 -5 -89 -27 -13 -14 -23 -32
-23 -40 0 -21 -37 -91 -53 -101 -8 -4 -31 -33 -51 -63 -49 -71 -75 -86 -105
-59 -11 11 -30 36 -41 57 -11 20 -30 49 -41 63 -24 30 -26 47 -16 145 9 80 -1
101 -44 99 -33 -2 -69 -15 -69 -25 0 -13 -52 -19 -76 -8 -25 11 -40 74 -23 94
7 8 6 15 -2 20 -9 5 -6 10 10 15 12 5 24 17 28 26 4 10 19 31 34 46 30 32 59
121 52 161 -4 18 0 28 11 32 9 3 16 15 16 25 0 19 1 19 23 -2 29 -28 77 -48
124 -52 21 -2 48 -9 60 -15 12 -7 35 -12 50 -12 16 0 34 -5 40 -11 16 -16 73
-3 108 26 l30 25 -3 133 c-4 133 -4 134 27 190 17 32 31 72 31 90 1 82 100
121 210 82 23 -8 65 -15 92 -15 41 0 54 5 79 29 35 35 37 68 9 130 -11 24 -20
52 -20 63 0 41 25 101 53 129 48 48 59 51 100 24 66 -45 117 -28 146 48 11 27
-8 50 -60 76 -32 16 -105 6 -113 -15 -7 -19 -31 -18 -96 5 -38 14 -61 16 -78
10 -45 -17 -106 -11 -127 13 -26 31 -28 98 -4 172 27 86 24 119 -16 197 -19
38 -33 69 -30 69 3 0 1 9 -5 21 -16 28 -15 91 1 117 7 12 27 27 43 34 17 7 38
20 48 30 10 10 23 18 28 18 6 0 10 6 10 14 0 7 11 24 24 37 29 30 33 43 45
152 8 71 7 97 -4 130 -17 48 -20 153 -5 162 6 4 8 10 5 15 -8 12 31 124 62
183 15 26 33 47 42 47 9 0 25 7 35 15 10 8 23 12 28 9 4 -3 21 7 36 23 25 26
27 32 19 78 -23 144 -19 171 32 224 31 33 106 91 116 91 5 0 22 10 39 23 51
38 229 95 313 100 29 2 55 6 59 10 4 3 33 9 65 13 33 4 59 10 59 14 0 31 194
89 231 69 12 -6 21 -4 29 6 7 8 19 15 26 15 13 0 18 12 15 33 0 4 7 7 18 7 14
0 17 -6 13 -27 -2 -16 -2 -26 1 -23 3 3 7 18 9 33 3 21 20 37 74 72 38 25 80
48 94 51 14 3 34 9 45 14 11 5 30 12 43 15 12 4 20 11 17 16 -8 12 18 3 80
-28 71 -35 84 -43 143 -87 42 -30 64 -39 105 -43 49 -4 55 -1 92 32 46 41 105
74 132 74 93 -2 142 14 143 48 0 16 83 83 104 83 9 0 17 8 17 18 1 9 3 27 4
40 1 12 -2 22 -8 22 -6 0 -3 6 7 13 16 11 16 15 2 42 -17 32 -5 61 21 51 16
-6 16 -1 3 25 -6 10 -17 19 -25 19 -8 0 -15 4 -15 8 0 5 14 7 30 4 25 -3 29
-1 24 12 -4 10 0 18 10 22 9 3 16 12 16 20 0 7 12 17 26 20 20 5 24 11 20 28
-3 11 -6 27 -6 34 0 7 -11 17 -25 22 -14 5 -25 15 -25 22 0 9 3 8 10 -2 8 -13
10 -12 10 3 0 36 -19 57 -53 57 -18 0 -38 -5 -45 -12 -8 -8 -15 -9 -22 -2 -7
7 -2 18 14 33 19 18 28 20 43 13 24 -13 73 -4 73 14 0 8 8 14 18 14 16 0 42
40 42 66 0 13 36 27 60 24 32 -4 42 -25 31 -66 -9 -31 -8 -41 6 -56 15 -17 15
-19 0 -36 -10 -10 -17 -23 -17 -29 0 -6 -5 -13 -12 -15 -9 -3 -9 -6 0 -12 7
-4 12 -2 12 3 0 16 36 13 50 -4 7 -8 18 -15 25 -15 6 0 17 -11 23 -24 8 -17
22 -27 47 -32 21 -4 34 -11 32 -18 -21 -50 -21 -52 -4 -37 13 11 20 11 32 1 8
-6 19 -9 25 -5 18 11 50 -5 50 -26 0 -10 6 -19 14 -19 8 0 17 -7 20 -16 3 -9
13 -14 20 -11 18 7 83 -10 91 -23 7 -12 -12 -50 -25 -50 -6 0 -23 -13 -38 -30
-33 -35 -42 -37 -43 -12 0 12 -3 10 -12 -8 -6 -14 -16 -28 -21 -31 -5 -4 -10
-21 -11 -38 -3 -38 19 -108 29 -92 4 6 28 11 54 11 53 0 93 22 88 48 -1 9 -8
30 -14 45 -7 16 -12 32 -12 37 0 5 -6 10 -12 12 -16 6 29 76 53 83 9 3 29 16
44 29 23 20 29 35 33 80 2 31 8 59 13 62 5 3 9 17 10 32 0 15 13 63 27 107 23
67 33 84 68 110 23 17 74 42 114 55 63 20 78 22 115 12 52 -14 92 -4 128 32
15 15 27 29 27 31 0 11 -679 5 -685 -6 -4 -6 -13 -8 -21 -5 -15 6 -20 -19 -6
-28 11 -6 -4 -131 -19 -168 -12 -29 -75 -83 -82 -71 -13 23 -18 78 -8 97 6 11
19 45 30 74 10 29 28 60 40 68 24 17 28 44 6 44 -8 0 -15 -5 -15 -12 0 -9 -3
-9 -12 0 -9 9 -99 12 -344 12 l-332 0 5 -57 c3 -44 0 -67 -14 -92 -31 -60 -63
-75 -166 -81 -84 -5 -92 -7 -92 -25 0 -15 -6 -19 -22 -18 -24 3 -32 -12 -10
-20 9 -3 7 -10 -7 -25 -10 -12 -23 -19 -28 -16 -6 4 -5 10 2 14 7 4 -2 7 -20
6 -26 -1 -34 -6 -37 -25 -2 -13 -23 -42 -47 -65 -50 -47 -146 -85 -236 -93
-37 -3 -81 -18 -135 -45 -74 -37 -87 -41 -170 -43 -66 -2 -99 -8 -122 -21 -18
-11 -33 -22 -33 -26 0 -13 -39 -48 -53 -48 -7 0 -18 -5 -24 -11 -11 -11 -61 9
-95 39 -10 8 -18 11 -18 5 0 -5 -9 -20 -20 -33 -11 -13 -20 -29 -20 -37 0 -32
-55 -85 -119 -115 -120 -56 -155 -71 -216 -88 -33 -10 -86 -28 -117 -40 -36
-14 -64 -20 -75 -15 -10 5 -25 7 -34 6 -11 -1 -18 8 -22 26 -3 16 -19 42 -36
58 -17 17 -31 38 -31 47 0 9 -5 20 -11 24 -6 3 -8 18 -5 33 5 21 4 23 -5 11
-9 -12 -10 -10 -5 10 3 14 6 30 6 36 0 6 11 28 25 48 13 20 22 36 18 36 -3 0
8 14 26 30 17 17 31 34 31 38 0 4 12 15 26 26 21 15 37 17 78 13 81 -8 110 9
147 90 38 80 47 175 23 232 -10 23 -15 68 -15 124 l0 87 -369 0 c-342 0 -368
-1 -372 -17z m2559 -504 c-1 -34 -4 -39 -21 -35 -32 8 -74 -5 -79 -25 -5 -19
-37 -27 -37 -10 0 5 -7 16 -15 25 -27 27 -8 47 70 74 17 5 42 10 57 11 25 1
27 -2 25 -40z m-142 -88 c3 -5 1 -12 -5 -16 -5 -3 -10 1 -10 9 0 18 6 21 15 7z
m3922 -163 c-3 -8 -6 -5 -6 6 -1 11 2 17 5 13 3 -3 4 -12 1 -19z m-32 -18 c3
-5 1 -10 -4 -10 -6 0 -11 5 -11 10 0 6 2 10 4 10 3 0 8 -4 11 -10z m2475 -640
c0 -5 8 -10 18 -10 29 0 17 -58 -15 -73 -13 -6 -22 -16 -19 -24 7 -17 -12 -17
-30 1 -21 22 -17 67 9 93 24 24 37 29 37 13z m20 -94 c0 -3 -4 -8 -10 -11 -5
-3 -10 -1 -10 4 0 6 5 11 10 11 6 0 10 -2 10 -4z m-1562 -80 c17 -9 39 -16 49
-17 10 0 32 -8 48 -18 27 -16 30 -23 30 -67 0 -34 -7 -59 -22 -83 -26 -39 -29
-57 -10 -75 16 -16 75 -9 99 11 9 8 21 12 26 9 5 -3 14 5 20 19 10 21 14 23
44 14 18 -5 34 -9 35 -9 2 0 3 -6 3 -14 0 -8 11 -28 24 -44 34 -39 25 -65 -32
-94 -25 -12 -51 -26 -57 -30 -46 -33 -78 -65 -87 -87 -8 -19 -12 -22 -15 -10
-3 11 -12 15 -28 11 -14 -2 -40 -1 -60 2 -37 7 -97 51 -93 70 9 51 -75 249
-128 300 -32 31 -32 31 -13 55 10 13 19 29 19 37 0 40 87 52 148 20z m-534
-574 c6 -23 6 -36 -1 -40 -6 -4 -13 -17 -17 -29 -12 -38 -86 -71 -87 -38 -1 6
-5 15 -10 21 -11 14 27 90 55 109 30 22 49 15 60 -23z m764 -57 c-3 -3 -9 2
-12 12 -6 14 -5 15 5 6 7 -7 10 -15 7 -18z m240 -141 c13 8 74 -33 70 -46 -3
-7 4 -20 15 -31 39 -39 1 -105 -90 -153 -55 -30 -84 -25 -98 15 -6 18 -14 29
-19 24 -4 -4 -14 0 -21 11 -8 10 -18 15 -23 12 -5 -3 -7 6 -4 19 2 13 9 23 15
22 12 -2 14 5 16 64 1 32 4 40 16 35 9 -3 24 3 34 13 25 25 42 30 64 19 9 -5
21 -7 25 -4z m-158 -85 c0 -18 -2 -19 -15 -9 -15 12 -12 30 6 30 5 0 9 -10 9
-21z m-37 -75 c-5 -13 -53 -6 -53 7 0 5 13 8 29 7 17 -1 27 -7 24 -14z m-236
-45 c15 -15 -6 -55 -34 -68 -21 -10 -23 -8 -23 19 0 17 -4 30 -10 30 -23 0 -8
19 18 23 15 2 29 5 33 6 3 0 10 -4 16 -10z m-349 -125 c37 -14 75 -29 84 -34
10 -6 19 -6 23 -1 12 20 43 -2 55 -39 15 -44 8 -72 -15 -64 -20 8 -19 -6 3
-22 15 -12 14 -13 -15 -14 -18 0 -33 5 -33 10 0 6 -27 10 -60 10 -92 0 -180
50 -180 102 0 13 56 78 67 78 3 0 35 -11 71 -26z m702 -164 c6 -11 8 -20 6
-20 -3 0 -10 9 -16 20 -6 11 -8 20 -6 20 3 0 10 -9 16 -20z m-1132 -219 c8 -4
20 -23 27 -44 13 -37 13 -37 -29 -71 -66 -54 -139 -87 -206 -93 -41 -4 -60 -2
-60 6 0 6 -11 11 -23 11 -23 0 -24 3 -23 68 1 57 5 71 26 92 14 14 29 24 34
22 4 -1 13 2 20 7 7 6 44 11 84 13 40 1 77 5 84 9 6 4 21 2 32 -3 12 -6 27
-14 34 -17z m-8623 -181 c3 -5 1 -10 -4 -10 -6 0 -11 5 -11 10 0 6 2 10 4 10
3 0 8 -4 11 -10z m8187 -16 c14 -14 20 -14 33 -4 8 7 15 11 16 9 8 -31 5 -84
-5 -95 -22 -22 -86 -54 -86 -44 0 6 -7 10 -15 10 -9 0 -21 11 -27 25 -6 14
-15 25 -20 25 -5 0 -6 5 -3 10 4 6 3 10 -2 9 -26 -4 -34 1 -21 15 7 7 18 12
23 9 6 -2 21 8 33 22 25 29 48 32 74 9z m-162 -4 c0 -5 -5 -10 -11 -10 -5 0
-7 5 -4 10 3 6 8 10 11 10 2 0 4 -4 4 -10z m-20 -60 c-32 -9 -44 -2 -29 16 9
11 16 11 33 2 21 -12 21 -12 -4 -18z m5 -40 c3 -5 -1 -10 -9 -10 -9 0 -16 5
-16 10 0 6 4 10 9 10 6 0 13 -4 16 -10z m50 -20 c-3 -5 -13 -10 -21 -10 -8 0
-14 5 -14 10 0 6 9 10 21 10 11 0 17 -4 14 -10z m-2716 -4 c-10 -9 -79 -14
-79 -5 0 5 19 9 42 9 23 0 39 -2 37 -4z m2759 -28 c-23 -18 -25 -48 -4 -87 10
-18 16 -42 13 -52 -3 -11 -1 -19 4 -19 5 0 1 -8 -8 -18 -24 -25 -40 -17 -54
26 -6 21 -16 43 -22 50 -5 6 -6 12 -2 12 4 0 1 7 -6 16 -11 14 -10 18 6 30 10
8 22 14 27 14 4 0 8 6 8 14 0 15 14 24 39 25 12 1 12 -2 -1 -11z m1222 -69 c4
-6 12 -9 17 -6 6 4 15 -5 21 -18 7 -14 19 -25 27 -25 10 0 15 -7 14 -17 -3
-37 1 -53 16 -53 18 0 18 -5 5 -30 -9 -16 -6 -22 17 -34 38 -20 125 -119 128
-146 2 -18 28 -50 40 -50 8 0 15 -6 15 -13 0 -25 47 -60 74 -55 15 3 31 -1 37
-8 16 -20 40 -17 37 3 -2 10 2 18 9 18 7 0 29 18 50 41 37 39 93 79 79 55 -4
-6 -3 -11 3 -11 5 0 13 5 16 11 5 6 22 8 46 4 27 -5 45 -3 56 7 14 11 16 11 9
-2 -4 -8 0 -6 8 4 15 19 16 19 16 -8 0 -15 4 -25 10 -21 6 3 10 3 10 -2 0 -4
14 -14 31 -22 17 -7 34 -23 39 -36 7 -20 41 -39 63 -36 12 2 8 -37 -5 -43 -7
-3 -3 -3 10 0 15 4 22 1 22 -9 0 -8 9 -17 20 -20 13 -3 18 -11 14 -20 -3 -9
-12 -13 -21 -10 -9 4 -13 0 -11 -10 2 -8 -9 -26 -23 -39 -14 -12 -33 -43 -43
-68 -10 -25 -22 -53 -27 -62 -5 -10 -9 -24 -9 -33 0 -20 -16 -22 -227 -37 -7
-1 -13 -5 -13 -9 0 -18 -120 45 -141 74 -3 4 -17 9 -30 11 -13 2 -31 6 -40 10
-9 4 -50 6 -90 4 -64 -3 -74 -1 -71 13 1 9 -4 19 -13 23 -9 3 -15 0 -15 -9 0
-22 -10 -18 -36 12 -18 22 -31 27 -60 25 -26 -2 -41 3 -54 18 -9 11 -22 20
-27 20 -6 0 -16 7 -24 16 -10 12 -10 20 -1 35 7 11 10 25 6 31 -4 5 -3 13 2
17 10 6 35 83 37 114 1 9 4 17 8 17 4 0 13 25 20 55 11 50 10 57 -5 68 -10 7
-16 18 -14 25 3 15 -67 43 -87 36 -7 -3 -19 2 -28 10 -17 17 -32 22 -23 7 8
-12 -37 -22 -48 -11 -6 6 -20 10 -32 10 -38 0 -54 11 -54 36 0 13 -5 24 -11
24 -6 0 -9 7 -5 15 3 8 0 15 -7 15 -6 0 4 14 23 30 53 46 58 50 68 50 6 0 22
7 38 15 33 17 123 13 134 -6z m-592 -39 c8 0 10 -8 6 -25 -4 -15 -2 -25 5 -25
19 0 12 -17 -10 -23 -28 -7 -15 -27 19 -28 25 -2 25 -2 3 -6 -31 -6 -73 5 -66
17 9 14 -9 12 -23 -2 -15 -15 -34 1 -39 31 -4 29 43 74 70 67 12 -3 28 -6 35
-6z m1709 -92 c-3 -8 -6 -5 -6 6 -1 11 2 17 5 13 3 -3 4 -12 1 -19z m-1903
-23 c4 -11 -2 -15 -21 -15 -21 0 -24 2 -13 15 7 8 16 15 20 15 4 0 10 -7 14
-15z m-47 -109 c7 -15 10 -38 7 -51 -8 -34 -62 -68 -108 -69 -34 -1 -40 2 -46
24 -10 36 8 91 31 97 10 3 19 9 19 14 0 7 45 16 75 14 5 0 15 -13 22 -29z
m2156 -42 c16 -13 25 -24 21 -24 -5 0 2 -7 14 -16 14 -9 22 -26 22 -43 0 -31
-20 -79 -36 -85 -21 -8 -90 35 -100 63 -12 30 -7 101 7 101 5 0 9 6 9 13 0 21
32 16 63 -9z m-2520 -239 c-3 -9 -8 -14 -10 -11 -3 3 -2 9 2 15 9 16 15 13 8
-4z m17 -155 c0 -5 -4 -10 -10 -10 -5 0 -10 5 -10 10 0 6 5 10 10 10 6 0 10
-4 10 -10z m2690 -200 c0 -5 -4 -10 -10 -10 -5 0 -10 5 -10 10 0 6 5 10 10 10
6 0 10 -4 10 -10z m-3290 -245 c6 -8 9 -19 5 -25 -11 -17 -22 -11 -27 15 -6
28 3 32 22 10z m-6999 -218 c-10 -9 -11 -8 -5 6 3 10 9 15 12 12 3 -3 0 -11
-7 -18z m6263 -41 c4 -19 12 -37 19 -39 7 -3 2 -4 -10 -4 -25 1 -47 40 -38 68
9 27 22 16 29 -25z m47 -98 c28 -33 38 -68 19 -68 -5 0 -10 5 -10 11 0 5 -4 8
-8 5 -5 -3 -18 15 -30 39 -26 53 -12 59 29 13z m-5833 -205 c-5 -25 -28 -28
-28 -4 0 12 6 21 16 21 9 0 14 -7 12 -17z m535 -130 c-2 -7 4 -13 12 -13 33 0
13 -26 -37 -48 -22 -9 -31 -8 -49 7 -22 18 -23 19 -5 45 14 22 24 27 49 24 19
-2 31 -8 30 -15z m-657 -108 c7 -17 -12 -71 -32 -95 -7 -8 -15 -31 -19 -50 -7
-39 -63 -89 -99 -91 -12 0 -31 -2 -43 -5 -29 -5 -47 27 -38 67 6 28 35 63 82
99 10 8 29 28 41 44 12 16 22 26 22 23 0 -3 12 1 28 9 35 18 51 18 58 -1z
m2872 -317 c1 -29 -4 -36 -45 -61 -32 -19 -65 -30 -109 -34 -45 -4 -75 -14
-105 -34 -24 -15 -46 -26 -51 -23 -13 8 -9 32 6 41 8 5 21 23 29 42 13 32 14
32 20 10 7 -26 23 -17 29 16 2 15 14 21 50 26 26 4 53 11 60 15 7 5 25 7 41 5
17 -1 29 3 33 13 11 30 40 19 42 -16z m-2748 -249 c0 -11 -4 -18 -10 -14 -5 3
-7 12 -3 20 7 21 13 19 13 -6z m4515 -169 c-3 -5 -15 -10 -26 -10 -10 0 -19 5
-19 10 0 6 12 10 26 10 14 0 23 -4 19 -10z m742 -16 c-3 -3 -12 -4 -19 -1 -8
3 -5 6 6 6 11 1 17 -2 13 -5z m-3061 -141 c-10 -10 -19 5 -10 18 6 11 8 11 12
0 2 -7 1 -15 -2 -18z m64 -68 c0 -4 -88 -45 -98 -45 -14 0 21 25 50 36 39 14
48 16 48 9z m-173 -171 c-3 -3 -12 -4 -19 -1 -8 3 -5 6 6 6 11 1 17 -2 13 -5z
m2220 -313 c17 -20 42 -42 55 -48 89 -43 125 -55 204 -68 l89 -14 -80 5 c-144
10 -250 53 -302 122 -18 24 -33 53 -33 65 1 22 1 22 18 -1 9 -13 31 -40 49
-61z m-1752 -243 c13 -5 2 -6 -30 -2 -27 3 -57 10 -65 15 -19 11 66 0 95 -13z
m102 -4 c-3 -3 -12 -4 -19 -1 -8 3 -5 6 6 6 11 1 17 -2 13 -5z m-97 -44 l25
-8 -25 0 c-14 0 -36 4 -50 8 l-25 8 25 0 c14 0 36 -4 50 -8z m270 -22 c0 -4
-16 -8 -35 -8 -19 0 -35 4 -35 10 0 5 16 9 35 8 19 -1 35 -5 35 -10z m1205
-788 c4 -6 -5 -10 -19 -10 -14 0 -26 5 -26 10 0 6 9 10 19 10 11 0 23 -4 26
-10z m-170 -40 c3 -6 -5 -10 -19 -10 -14 0 -28 5 -31 10 -3 6 5 10 19 10 14 0
28 -4 31 -10z m20 -1297 c9 23 27 22 43 -3 11 -19 10 -20 -33 -20 -25 0 -45 5
-45 10 0 6 -7 10 -15 10 -18 0 -20 17 -3 22 7 3 20 -5 30 -16 15 -19 17 -20
23 -3z m-2103 -203 c12 -11 18 -20 12 -20 -11 1 -44 25 -44 34 0 11 10 7 32
-14z m-99 -21 c-4 -15 -8 -17 -14 -8 -6 11 4 28 18 29 0 0 -1 -9 -4 -21z
m1047 -559 c0 -5 -5 -10 -11 -10 -5 0 -7 5 -4 10 3 6 8 10 11 10 2 0 4 -4 4
-10z m-100 -125 c0 -13 -7 -28 -15 -32 -12 -7 -17 -20 -24 -62 -1 -3 -7 3 -14
14 -12 15 -11 24 10 61 28 49 43 56 43 19z m-50 -141 c0 -8 -3 -14 -7 -15 -5
0 -19 -2 -33 -4 -14 -2 -19 -1 -12 1 6 3 12 12 12 19 0 14 20 25 33 18 4 -2 7
-11 7 -19z m35 6 c-3 -5 -10 -10 -16 -10 -5 0 -9 5 -9 10 0 6 7 10 16 10 8 0
12 -4 9 -10z m-159 -94 c-14 -19 -26 -39 -26 -44 0 -5 -6 -15 -14 -21 -11 -9
-16 -9 -22 0 -4 7 2 19 14 28 11 9 22 23 24 31 2 12 30 34 47 39 2 1 -8 -14
-23 -33z m-62 -108 c9 -36 7 -76 -5 -84 -6 -3 -8 -15 -6 -26 8 -28 -36 -72
-63 -63 -16 5 -23 2 -27 -13 -5 -22 -29 -36 -44 -26 -5 3 -5 12 0 23 15 28 68
81 80 81 19 0 33 50 20 67 -9 10 -9 20 -1 38 14 31 38 32 46 3z m66 -48 c0 -5
-5 -10 -11 -10 -5 0 -7 5 -4 10 3 6 8 10 11 10 2 0 4 -4 4 -10z m-70 -295 c7
-8 9 -23 5 -32 -6 -17 -7 -17 -21 1 -26 36 -12 64 16 31z m3172 -125 c21 -19
21 -20 2 -20 -20 0 -44 17 -44 32 0 14 20 8 42 -12z m378 -40 c-20 -13 -43
-13 -35 0 3 6 16 10 28 10 18 0 19 -2 7 -10z m-390 -15 c0 -17 -49 -44 -69
-37 -10 3 -12 0 -8 -11 8 -22 -1 -27 -34 -15 -33 11 -29 28 7 28 13 0 24 5 24
10 0 6 11 10 24 10 13 0 26 7 30 15 7 19 26 19 26 0z m311 -25 c-25 -21 -57
-27 -46 -9 7 11 42 28 60 28 6 0 -1 -9 -14 -19z m-861 -34 c0 -3 -4 -8 -10
-11 -5 -3 -10 -1 -10 4 0 6 5 11 10 11 6 0 10 -2 10 -4z m418 -49 c2 -22 -1
-37 -8 -37 -6 0 -8 5 -4 12 5 8 -5 9 -37 5 -47 -6 -76 3 -65 22 4 6 15 11 25
11 9 0 26 7 37 15 31 24 49 14 52 -28z m302 16 c-8 -3 -19 -12 -23 -19 -4 -8
-13 -14 -18 -14 -6 0 -26 -11 -45 -24 -29 -19 -32 -25 -18 -30 29 -11 -12 -46
-55 -47 -20 -1 -47 -4 -60 -8 -19 -5 -21 -8 -10 -17 15 -11 25 -11 52 1 11 4
23 3 30 -4 6 -6 20 -11 31 -11 26 0 13 -12 -16 -15 -13 -1 -29 -3 -35 -4 -15
-1 -17 -37 -3 -46 6 -4 8 -11 4 -16 -3 -6 10 -7 34 -3 48 8 63 -9 23 -26 -34
-14 -71 -5 -71 16 0 16 -5 17 -37 8 -13 -4 -23 -11 -23 -16 0 -5 10 -7 23 -4
12 3 16 3 10 0 -7 -3 -13 -14 -13 -24 0 -11 -11 -20 -32 -26 -31 -7 -29 -8 25
-13 31 -3 58 -10 58 -16 0 -5 -24 -14 -53 -19 -46 -8 -99 -36 -69 -36 6 0 8
-7 5 -15 -5 -12 -10 -13 -20 -4 -16 13 -19 55 -3 64 5 4 9 14 7 23 -2 10 3 23
12 30 13 11 8 13 -27 9 -24 -3 -46 -1 -49 4 -12 21 -24 7 -19 -23 7 -37 16
-49 22 -30 3 6 12 12 21 11 11 0 12 -2 5 -6 -7 -2 -13 -10 -13 -17 0 -9 -9
-12 -25 -8 -18 3 -25 0 -25 -12 0 -10 5 -13 17 -9 11 4 14 3 9 -5 -4 -7 -15
-12 -24 -12 -15 -1 -15 -2 2 -15 18 -14 17 -15 -23 -15 -31 0 -51 7 -73 25
-31 26 -91 34 -103 14 -11 -17 -55 -30 -72 -20 -14 7 -13 10 6 16 11 3 19 10
16 15 -3 4 -24 1 -47 -7 -24 -9 -68 -15 -98 -15 -30 0 -87 -7 -127 -14 -84
-16 -208 -18 -273 -3 -25 5 -62 11 -83 12 -26 1 -45 9 -57 24 -12 16 -24 20
-41 16 -32 -9 -54 -30 -36 -36 6 -2 10 -7 7 -10 -3 -3 -16 3 -29 14 -17 14
-19 19 -7 19 9 0 13 6 10 14 -9 24 44 35 101 20 173 -43 328 -56 339 -28 3 9
21 13 55 11 47 -2 71 6 58 19 -3 3 -30 9 -59 13 -42 6 -48 9 -31 15 13 4 28 4
34 0 8 -4 9 -3 5 4 -4 7 -31 11 -66 10 -56 -1 -60 -3 -70 -31 -10 -30 -10 -30
-31 -11 -18 16 -34 18 -113 16 -59 -2 -113 3 -151 13 -33 8 -79 15 -102 15
-40 0 -43 2 -43 28 l0 27 -20 -30 -20 -30 25 -3 c32 -4 33 -22 1 -22 -13 0
-29 -7 -36 -15 -7 -8 -20 -15 -29 -15 -14 1 -13 3 3 15 10 8 24 16 30 19 7 3
2 13 -11 24 -30 27 -29 32 11 65 42 32 43 33 65 6 16 -20 24 -21 236 -18 121
1 263 1 315 0 107 -2 280 16 294 30 6 5 18 9 28 9 11 0 35 8 56 19 20 10 58
21 84 25 25 4 52 14 58 21 7 8 20 15 29 15 25 0 140 45 160 62 10 9 37 19 60
23 23 4 50 16 60 26 19 21 62 37 96 37 14 0 16 -1 5 -5z m-790 -33 c0 -5 -9
-10 -21 -10 -11 0 -17 5 -14 10 3 6 13 10 21 10 8 0 14 -4 14 -10z m-210 -15
c0 -8 -9 -15 -19 -15 -24 0 -36 16 -19 23 24 10 38 7 38 -8z m-2780 -47 c0 -5
-5 -8 -11 -8 -5 0 -8 4 -4 9 3 5 1 12 -5 16 -5 3 -10 1 -10 -6 0 -7 -2 -10 -5
-7 -3 3 -3 13 1 22 6 15 7 15 20 -1 7 -10 14 -21 14 -25z m3788 0 c-5 -15 -88
-24 -88 -10 0 16 13 22 53 22 26 0 37 -4 35 -12z m-3847 -41 c-8 -8 -11 -7
-11 4 0 20 13 34 18 19 3 -7 -1 -17 -7 -23z m2964 13 c-3 -5 -15 -10 -26 -10
-11 0 -17 5 -14 10 3 6 15 10 26 10 11 0 17 -4 14 -10z m-3012 -98 c-6 -24
-23 -30 -23 -9 0 13 21 39 26 34 2 -2 1 -13 -3 -25z m3777 3 c0 -2 -10 -10
-22 -16 -21 -11 -22 -11 -9 4 13 16 31 23 31 12z m-2893 -31 c-3 -3 -12 -4
-19 -1 -8 3 -5 6 6 6 11 1 17 -2 13 -5z m778 -4 c3 -6 -6 -15 -22 -21 -15 -6
-36 -18 -46 -26 -9 -9 -19 -14 -21 -12 -6 6 26 44 49 57 25 14 32 15 40 2z
m129 -39 c-21 -21 -29 -19 -21 4 4 8 14 15 23 15 16 0 16 -2 -2 -19z m172 -24
c4 -4 2 -13 -4 -19 -8 -8 -24 -9 -58 -1 -42 10 -47 9 -51 -8 -3 -10 -9 -19
-13 -19 -15 0 -30 28 -24 44 5 13 19 15 75 13 37 -1 71 -6 75 -10z m-2016 0
c0 -2 -10 -12 -22 -23 l-23 -19 19 23 c18 21 26 27 26 19z m3940 -11 c0 -8 -5
-18 -10 -21 -17 -11 -40 3 -34 20 8 19 44 20 44 1z m-70 -15 c0 -5 -7 -12 -16
-15 -28 -11 -54 -6 -54 9 0 10 11 15 35 15 19 0 35 -4 35 -9z m-1700 -31 c21
-7 19 -8 -17 -9 -24 -1 -43 4 -43 9 0 12 24 12 60 0z m-2017 -43 c-3 -5 -10
-4 -15 1 -6 6 -7 16 -3 22 6 9 9 9 16 -1 4 -7 5 -17 2 -22z m2307 29 c0 -3 -4
-8 -10 -11 -5 -3 -10 -1 -10 4 0 6 5 11 10 11 6 0 10 -2 10 -4z m1464 -10 c-8
-22 -52 -29 -76 -12 -20 14 -19 15 13 19 66 8 69 7 63 -7z m-1920 -15 c3 -4
18 -6 33 -3 19 3 25 1 18 -6 -5 -5 -38 -13 -72 -16 -53 -6 -62 -5 -57 8 5 13
23 20 61 25 6 0 14 -3 17 -8z m601 -31 c3 -5 1 -10 -4 -10 -6 0 -11 5 -11 10
0 6 2 10 4 10 3 0 8 -4 11 -10z m-2620 -10 c-3 -5 -12 -10 -18 -10 -7 0 -6 4
3 10 19 12 23 12 15 0z m2601 -21 c46 -31 50 -49 9 -49 -24 0 -108 63 -98 74
14 13 47 4 89 -25z m-481 8 l59 -13 -24 -17 c-18 -12 -27 -14 -37 -5 -8 6 -34
9 -68 5 -43 -4 -55 -2 -55 8 0 16 27 34 50 34 8 0 42 -5 75 -12z m1735 -1 c0
-20 -26 -40 -35 -26 -10 16 2 40 20 40 8 0 15 -6 15 -14z m-675 -6 c-3 -5 -10
-10 -16 -10 -5 0 -9 5 -9 10 0 6 7 10 16 10 8 0 12 -4 9 -10z m-1084 -83 c-16
-16 -26 0 -10 19 9 11 15 12 17 4 2 -6 -1 -17 -7 -23z m1314 -7 c3 -6 -4 -10
-17 -10 -18 0 -20 2 -8 10 19 12 18 12 25 0z m-1462 -24 c21 -16 22 -26 2 -26
-8 0 -15 5 -15 10 0 6 -7 10 -15 10 -8 0 -15 5 -15 10 0 14 22 12 43 -4z m187
-20 c0 -11 -19 -15 -25 -6 -3 5 1 10 9 10 9 0 16 -2 16 -4z m-2038 -28 c-6 -6
-15 -8 -19 -4 -4 4 -1 11 7 16 19 12 27 3 12 -12z m1355 6 c-3 -3 -12 -4 -19
-1 -8 3 -5 6 6 6 11 1 17 -2 13 -5z m2134 -13 c-8 -5 -20 -7 -28 -4 -21 8 -15
13 15 13 20 0 23 -3 13 -9z m-127 -90 c3 -5 0 -11 -8 -14 -8 -3 -17 1 -20 9
-6 15 19 20 28 5z m226 -1 c0 -5 -7 -10 -15 -10 -8 0 -15 5 -15 10 0 6 7 10
15 10 8 0 15 -4 15 -10z m-277 -56 c4 -8 16 -14 25 -14 34 -1 -12 -19 -54 -21
-47 -3 -74 9 -53 22 10 6 11 9 2 9 -7 0 -13 6 -13 14 0 18 81 9 93 -10z
m-1238 -4 c3 -5 1 -10 -4 -10 -6 0 -11 5 -11 10 0 6 2 10 4 10 3 0 8 -4 11
-10z m-50 -20 c3 -5 1 -10 -4 -10 -6 0 -11 5 -11 10 0 6 2 10 4 10 3 0 8 -4
11 -10z m-2173 -170 c-19 -18 -42 -27 -42 -16 0 15 14 35 21 30 5 -3 12 2 15
11 5 12 10 13 17 6 8 -8 5 -17 -11 -31z m-107 -139 c-3 -12 -10 -21 -15 -21
-5 0 -4 11 2 25 13 29 23 26 13 -4z m2325 9 c0 -5 -7 -10 -15 -10 -8 0 -15 5
-15 10 0 6 7 10 15 10 8 0 15 -4 15 -10z m-2184 -49 c-9 -14 -65 -31 -71 -21
-3 5 3 13 12 19 22 13 66 14 59 2z"/></symbol>

  <symbol id="logo-icon" viewBox="0 0 50 41"><title>Slides Framework</title><path d="M4,12h42c2.2,0,4,1.8,4,4v21c0,2.2-1.8,4-4,4H4c-2.2,0-4-1.8-4-4V16C0,13.8,1.8,12,4,12z"/><path opacity="0.6" d="M45.5,9h-41C3.7,9,3,8.3,3,7.5v0C3,6.7,3.7,6,4.5,6h41C46.3,6,47,6.7,47,7.5v0C47,8.3,46.3,9,45.5,9z"/><path opacity="0.4" d="M7.5,0h35C43.3,0,44,0.7,44,1.5v0C44,2.3,43.3,3,42.5,3h-35C6.7,3,6,2.3,6,1.5v0C6,0.7,6.7,0,7.5,0z"/></symbol>

  <symbol id="close" viewBox="0 0 30 30"><path d="M15 0c-8.3 0-15 6.7-15 15s6.7 15 15 15 15-6.7 15-15-6.7-15-15-15zm5.7 19.3c.4.4.4 1 0 1.4-.2.2-.4.3-.7.3s-.5-.1-.7-.3l-4.3-4.3-4.3 4.3c-.2.2-.4.3-.7.3s-.5-.1-.7-.3c-.4-.4-.4-1 0-1.4l4.3-4.3-4.3-4.3c-.4-.4-.4-1 0-1.4s1-.4 1.4 0l4.3 4.3 4.3-4.3c.4-.4 1-.4 1.4 0s.4 1 0 1.4l-4.3 4.3 4.3 4.3z"/></symbol>

  <symbol id="close-small" viewBox="0 0 11 11"><path d="M6.914 5.5l3.793-3.793c.391-.391.391-1.023 0-1.414s-1.023-.391-1.414 0l-3.793 3.793-3.793-3.793c-.391-.391-1.023-.391-1.414 0s-.391 1.023 0 1.414l3.793 3.793-3.793 3.793c-.391.391-.391 1.023 0 1.414.195.195.451.293.707.293s.512-.098.707-.293l3.793-3.793 3.793 3.793c.195.195.451.293.707.293s.512-.098.707-.293c.391-.391.391-1.023 0-1.414l-3.793-3.793z"/></symbol>

  <symbol id="arrow-left" viewBox="0 0 29 56"><path d="M28.7.3c.4.4.4 1 0 1.4l-26.3 26.3 26.3 26.3c.4.4.4 1 0 1.4-.4.4-1 .4-1.4 0l-27-27c-.4-.4-.4-1 0-1.4l27-27c.3-.3 1-.4 1.4 0z"/></symbol>

  <symbol id="arrow-right" viewBox="0 0 29 56"><path d="M.3 55.7c-.4-.4-.4-1 0-1.4l26.3-26.3-26.3-26.3c-.4-.4-.4-1 0-1.4.4-.4 1-.4 1.4 0l27 27c.4.4.4 1 0 1.4l-27 27c-.3.3-1 .4-1.4 0z"/></symbol>

  <symbol id="back" viewBox="0 0 20 20"><path d="M2.3 10.7l5 5c.4.4 1 .4 1.4 0s.4-1 0-1.4l-3.3-3.3h11.6c.6 0 1-.4 1-1s-.4-1-1-1h-11.6l3.3-3.3c.4-.4.4-1 0-1.4-.2-.2-.4-.3-.7-.3s-.5.1-.7.3l-5 5c-.2.2-.3.5-.3.7 0 .2.1.5.3.7z"/></symbol>

  <symbol id="menu" viewBox="0 0 18 18"><path d="M16 5h-14c-.6 0-1-.4-1-1 0-.5.4-1 1-1h14c.5 0 1 .4 1 1s-.4 1-1 1zm-14 5h14c.5 0 1-.4 1-1 0-.5-.4-1-1-1h-14c-.6 0-1 .4-1 1s.4 1 1 1zm14 3h-14c-.5 0-1 .4-1 1 0 .5.4 1 1 1h14c.5 0 1-.4 1-1s-.4-1-1-1z"/></symbol>

  <symbol id="share" viewBox="0 0 18 18"><path d="M16 8c-.6 0-1 .4-1 1v6h-12v-6c0-.6-.4-1-1-1s-1 .4-1 1v6c0 1.1.9 2 2 2h12c1.1 0 2-.9 2-2v-6c0-.6-.4-1-1-1zm-2.3-2.3c.4-.4.4-1 0-1.4l-4-4c-.4-.4-1-.4-1.4 0l-4 4c-.4.4-.4 1 0 1.4s1 .4 1.4 0l2.3-2.3v7.6c0 .6.4 1 1 1s1-.4 1-1v-7.6l2.3 2.3c.4.4 1 .4 1.4 0z"/></symbol>

  <symbol id="arrow-down" viewBox="0 0 24 24"><path d="M12 18c-.2 0-.5-.1-.7-.3l-11-10c-.4-.4-.4-1-.1-1.4.4-.4 1-.4 1.4-.1l10.4 9.4 10.3-9.4c.4-.4 1-.3 1.4.1.4.4.3 1-.1 1.4l-11 10c-.1.2-.4.3-.6.3z"/></symbol>

  <symbol id="arrow-up" viewBox="0 0 24 24"><path d="M11.9 5.9c.2 0 .5.1.7.3l11 10c.4.4.4 1 .1 1.4-.4.4-1 .4-1.4.1l-10.4-9.4-10.3 9.4c-.4.4-1 .3-1.4-.1-.4-.4-.3-1 .1-1.4l11-10c.1-.2.4-.3.6-.3z"/></symbol>

  <symbol id="arrow-top" viewBox="0 0 18 18"><path d="M15.7 7.3l-6-6c-.4-.4-1-.4-1.4 0l-6 6c-.4.4-.4 1 0 1.4.4.4 1 .4 1.4 0l4.3-4.3v11.6c0 .6.4 1 1 1s1-.4 1-1v-11.6l4.3 4.3c.2.2.4.3.7.3s.5-.1.7-.3c.4-.4.4-1 0-1.4z"/></symbol>

  <symbol id="play" viewBox="0 0 30 30"><path d="M7 30v-30l22 15z"/></symbol>

  <symbol id="chat" viewBox="0 0 18 18"><path d="M5,17c-0.2,0-0.3,0-0.4-0.1C4.2,16.7,4,16.4,4,16v-2H2c-1.1,0-2-0.9-2-2V3c0-1.1,0.9-2,2-2h14c1.1,0,2,0.9,2,2v9 c0,1.1-0.9,2-2,2H9.3l-3.7,2.8C5.4,16.9,5.2,17,5,17z M2,12h3.5C5.8,12,6,12.2,6,12.5V14l2.4-1.8C8.6,12.1,8.8,12,9,12h7V3H2V12z M13,7H5C4.4,7,4,6.6,4,6s0.4-1,1-1h8c0.6,0,1,0.4,1,1S13.6,7,13,7z M13,10H5c-0.6,0-1-0.4-1-1s0.4-1,1-1h8c0.6,0,1,0.4,1,1 S13.6,10,13,10z"/></symbol>

  <symbol id="mail" viewBox="0 0 18 18"><path d="M16 2h-14c-1.1 0-2 .9-2 2v10c0 1.1.9 2 2 2h14c1.1 0 2-.9 2-2v-10c0-1.1-.9-2-2-2zm0 2v.5l-7 4.3-7-4.4v-.4h14zm-14 10v-7.2l6.5 4c.1.1.3.2.5.2s.4-.1.5-.2l6.5-4v7.2h-14z"/></symbol>

  <symbol id="sound-on" viewBox="0 0 18 18"><path d="M8.5,0.1C8.1-0.1,7.7,0,7.4,0.2L3.7,3H2C0.9,3,0,3.9,0,5v6c0,1.1,0.9,2,2,2h1.7l3.7,2.8C7.6,15.9,7.8,16,8,16 c0.2,0,0.3,0,0.4-0.1C8.8,15.7,9,15.4,9,15V1C9,0.6,8.8,0.3,8.5,0.1z M7,13l-2.4-1.8C4.4,11.1,4.2,11,4,11l-2,0l0-6h2 c0.2,0,0.4-0.1,0.6-0.2L7,3V13z M11.7,9.9l0.7,1.9C13.9,11.2,15,9.7,15,8c0-1.7-1.1-3.2-2.7-3.8l-0.7,1.9C12.5,6.4,13,7.2,13,8C13,8.9,12.5,9.6,11.7,9.9z M12.2,1.1l-0.3,2C14.3,3.5,16,5.6,16,8s-1.8,4.5-4.2,4.9l0.3,2C15.6,14.3,18,11.4,18,8C18,4.6,15.6,1.7,12.2,1.1z"/></symbol>

  <symbol id="sound-off" viewBox="0 0 18 18"><path d="M15.9,8l1.8-1.8c0.4-0.4,0.4-1,0-1.4s-1-0.4-1.4,0l-1.8,1.8l-1.8-1.8c-0.4-0.4-1-0.4-1.4,0s-0.4,1,0,1.4L13.1,8l-1.8,1.8 c-0.4,0.4-0.4,1,0,1.4c0.2,0.2,0.5,0.3,0.7,0.3s0.5-0.1,0.7-0.3l1.8-1.8l1.8,1.8c0.2,0.2,0.5,0.3,0.7,0.3s0.5-0.1,0.7-0.3 c0.4-0.4,0.4-1,0-1.4L15.9,8z M8.5,0.1C8.1-0.1,7.7,0,7.4,0.2L3.7,3H2C0.9,3,0,3.9,0,5v6c0,1.1,0.9,2,2,2h1.7l3.7,2.8C7.6,15.9,7.8,16,8,16 c0.2,0,0.3,0,0.4-0.1C8.8,15.7,9,15.4,9,15V1C9,0.6,8.8,0.3,8.5,0.1z M7,13l-2.4-1.8C4.4,11.1,4.2,11,4,11l-2,0l0-6h2 c0.2,0,0.4-0.1,0.6-0.2L7,3V13z"/></symbol>

  <!-- social -->
  <symbol id="apple" viewBox="-1 1 24 24"><path d="M17.6 13.8c0-3 2.5-4.5 2.6-4.6-1.4-2.1-3.6-2.3-4.4-2.4-1.9-.2-3.6 1.1-4.6 1.1-.9 0-2.4-1.1-4-1-2 0-3.9 1.2-5 3-2.1 3.7-.5 9.1 1.5 12.1 1 1.5 2.2 3.1 3.8 3 1.5-.1 2.1-1 3.9-1s2.4 1 4 1 2.7-1.5 3.7-2.9c1.2-1.7 1.6-3.3 1.7-3.4-.1-.1-3.2-1.3-3.2-4.9zm-3.1-9c.8-1 1.4-2.4 1.2-3.8-1.2 0-2.7.8-3.5 1.8-.8.9-1.5 2.3-1.3 3.7 1.4.1 2.8-.7 3.6-1.7z"/></symbol>

  <symbol id="dribbble" viewBox="0 0 24 24"><path d="M12 0c-6.7 0-12 5.3-12 12s5.3 12 12 12 12-5.3 12-12-5.3-12-12-12zm7.9 5.7c1.3 1.7 2.1 3.9 2.3 6.1-.4-.1-2.4-.4-4.7-.4-.8 0-1.5 0-2.3.1 0-.1-.1-.3-.3-.5l-.7-1.5c3.7-1.4 5.3-3.4 5.7-3.8zm-7.9-3.8c2.5 0 4.9.9 6.7 2.5-.3.4-1.9 2.3-5.2 3.6-1.6-2.9-3.3-5.3-3.7-5.9.6-.1 1.4-.2 2.2-.2zm-4.4 1c.4.6 2.1 3 3.7 5.8-4.4 1.2-8.2 1.2-9.2 1.2h-.1c.8-3.1 2.9-5.6 5.6-7zm-5.7 9.1v-.3h.3c1.2 0 5.6-.1 10.1-1.5l.8 1.6c-.1 0-.3 0-.4.1-5.1 1.6-7.9 6-8.3 6.7-1.6-1.7-2.5-4.1-2.5-6.6zm10.1 10.1c-2.3 0-4.4-.8-6.1-2.1.3-.5 2.4-4.4 7.9-6.3 1.3 3.6 2 6.7 2.1 7.6-1.2.6-2.6.8-3.9.8zm5.7-1.8c-.1-.8-.7-3.6-2-7.1.7-.1 1.3-.1 2-.1 2.1 0 3.7.4 4.1.5-.3 2.8-1.8 5.2-4.1 6.7z"/></symbol>

  <symbol id="facebook" viewBox="0 0 24 24"><path d="M24 1.3v21.3c0 .7-.6 1.3-1.3 1.3h-6.1v-9.3h3.1l.5-3.6h-3.6v-2.2c0-1.1.3-1.8 1.8-1.8h1.9v-3.2c-.3 0-1.5-.1-2.8-.1-2.8 0-4.7 1.7-4.7 4.8v2.7h-3.1v3.6h3.1v9.2h-11.5c-.7 0-1.3-.6-1.3-1.3v-21.4c0-.7.6-1.3 1.3-1.3h21.3c.8 0 1.4.6 1.4 1.3z"/></symbol>

  <symbol id="facebook2" viewBox="0 0 512 512"><path d="M288 176v-64c0-17.664 14.336-32 32-32h32v-80h-64c-53.024 0-96 42.976-96 96v80h-64v80h64v256h96v-256h64l32-80h-96z"/></symbol>

  <symbol id="fb-like" viewBox="0 0 20 20"><path d="M0 8v12h5v-12h-5zm2.5 10.8c-.4 0-.8-.3-.8-.8 0-.4.3-.8.8-.8s.8.3.8.8c0 .4-.4.8-.8.8zm3.5-.8h9.5c1.1 0 1.7-1 1.7-1.7 0-.3-.4-1-.4-1 1.4-.3 1.7-1.2 1.7-1.7-.1-.5-.3-.9-.5-1 1-.4 1.5-1.1 1.4-1.9-.1-.8-1-1.5-1-1.5 1-.6.9-1.5.9-1.5-.3-1.3-1.5-1.7-1.7-1.7h-5.6s.3-.5.3-2.4-1.3-3.6-2.6-3.6c0 0-.7.1-1 .3v3.5l-2.7 4.4v9.8z"/></symbol>

  <symbol id="googlePlus" viewBox="0 1 24 24"><path d="M7.8 13.5h4.6c-.6 2-2.5 3.4-4.6 3.4-2.7 0-4.9-2.2-4.9-4.9s2.2-4.9 4.9-4.9c1.1 0 2.1.3 3 1l1.8-2.4c-1.4-1.1-3-1.6-4.8-1.6-4.3 0-7.9 3.5-7.9 7.9s3.5 7.9 7.9 7.9 7.9-3.5 7.9-7.9v-1.5h-7.9v3zM21.7 11v-2.2h-2v2.2h-2.2v2h2.2v2.2h2v-2.2h2.2v-2z"/></symbol>

  <symbol id="instagram" viewBox="0 0 20 20"><circle cx="10" cy="10" r="3.3"/><path d="M13,0H7C2.2,0,0,2.2,0,7v6c0,4.8,2.1,7,7,7h6c4.8,0,7-2.2,7-7V7C20,2.2,17.9,0,13,0z M10,15.1c-2.8,0-5.1-2.3-5.1-5.1 S7.2,4.9,10,4.9s5.1,2.3,5.1,5.1S12.8,15.1,10,15.1z M15.3,5.9c-0.7,0-1.2-0.5-1.2-1.2c0-0.7,0.5-1.2,1.2-1.2s1.2,0.5,1.2,1.2 C16.5,5.3,16,5.9,15.3,5.9z"/></symbol>

  <symbol id="behance" viewBox="0 0 511.958 511.958"><path d="M210.624 240.619c10.624-5.344 18.656-11.296 24.16-17.728 9.792-11.584 14.624-26.944 14.624-45.984 0-18.528-4.832-34.368-14.496-47.648-16.128-21.632-43.424-32.704-82.016-33.28h-152.896v312.096h142.56c16.064 0 30.944-1.376 44.704-4.192 13.76-2.848 25.664-8.064 35.744-15.68 8.96-6.624 16.448-14.848 22.4-24.544 9.408-14.656 14.112-31.264 14.112-49.76 0-17.92-4.128-33.184-12.32-45.728-8.288-12.544-20.448-21.728-36.576-27.552zm-147.552-90.432h68.864c15.136 0 27.616 1.632 37.408 4.864 11.328 4.704 16.992 14.272 16.992 28.864 0 13.088-4.32 22.24-12.864 27.392-8.608 5.152-19.776 7.744-33.472 7.744h-76.928v-68.864zm108.896 198.24c-7.616 3.68-18.336 5.504-32.064 5.504h-76.832v-83.232h77.888c13.568.096 24.128 1.888 31.68 5.248 13.44 6.08 20.128 17.216 20.128 33.504 0 19.2-6.912 32.128-20.8 38.976zM327.168 110.539h135.584v38.848h-135.584zM509.856 263.851c-2.816-18.08-9.024-33.984-18.688-47.712-10.592-15.552-24.032-26.944-40.384-34.144-16.288-7.232-34.624-10.848-55.04-10.816-34.272 0-62.112 10.72-83.648 32-21.472 21.344-32.224 52.032-32.224 92.032 0 42.656 11.872 73.472 35.744 92.384 23.776 18.944 51.232 28.384 82.4 28.384 37.728 0 67.072-11.232 88.032-33.632 13.408-14.144 20.992-28.064 22.656-41.728h-62.464c-3.616 6.752-7.808 12.032-12.608 15.872-8.704 7.04-20.032 10.56-33.92 10.56-13.216 0-24.416-2.912-33.76-8.704-15.424-9.28-23.488-25.536-24.512-48.672h170.464c.256-19.936-.384-35.264-2.048-45.824zm-166.88 5.984c2.24-15.008 7.68-26.912 16.32-35.712 8.64-8.768 20.864-13.184 36.512-13.216 14.432 0 26.496 4.128 36.32 12.416 9.696 8.352 15.168 20.48 16.288 36.512h-105.44z"/></symbol>

  <symbol id="linkedin" viewBox="0 0 24 24"><path d="M5.9 21.9h-4.7v-14.2h4.7v14.2zm-2.3-16.1c-1.6 0-2.6-1.1-2.6-2.5s1-2.5 2.7-2.5c1.6 0 2.6 1 2.6 2.5-.1 1.4-1.2 2.5-2.7 2.5zm19.2 16.1h-4.7v-7.6c0-2-.7-3.3-2.3-3.3-1.3 0-2.1.9-2.5 1.7-.1.3-.1.8-.1 1.2v7.9h-4.7v-14.1h4.7v2c.7-.9 1.7-2.3 4.3-2.3 3.1 0 5.5 2.1 5.5 6.4v8.2h-.2z"/></symbol>

  <symbol id="medium" viewBox="0 0 130.8 104"><path d="M15.5 21.2c.2-1.6-.5-3.2-1.7-4.3l-12.1-14.7v-2.2h38l29.3 64.4 25.8-64.4h36.2v2.2l-10.5 10c-.9.7-1.3 1.8-1.2 2.9v73.7c0 1.1.3 2.2 1.2 2.9l10.2 10v2.2h-51.3v-2.2l10.6-10.2c1-1 1-1.3 1-2.9v-59.6l-29.4 74.7h-4l-34.2-74.7v50.3c0 2.2.4 4.2 1.9 5.7l13.7 16.8v2.2h-39v-2.2l13.8-16.7c1.5-1.5 1.8-3.3 1.8-5.7l-.1-58.2z"/></symbol>

  <symbol id="pinterest" viewBox="0 0 24 24"><path d="M5.9 13.9c1.2-2-.4-2.5-.6-4-1-6.1 7.1-10.2 11.4-6 2.9 2.9 1 12-3.7 11-4.6-.9 2.2-8.1-1.4-9.5-3-1.1-4.6 3.6-3.2 5.9-.8 4-2.5 7.7-1.8 12.7 2.3-1.7 3.1-4.8 3.7-8.1 1.2.7 1.8 1.4 3.3 1.5 5.5.4 8.6-5.4 7.8-10.7-.7-4.7-5.5-7.1-10.6-6.6-4.1.4-8.1 3.7-8.3 8.3-.1 2.8.7 4.9 3.4 5.5z"/></symbol>

  <symbol id="stumbleupon" viewBox="0 0 24 24"><path d="M13.3 9.6l1.6.8 2.5-.8v-1.4c0-3-2.4-5.4-5.4-5.4s-5.4 2.4-5.4 5.4v7.5c0 .7-.6 1.3-1.3 1.3s-1.3-.6-1.3-1.3v-3.2h-4v3.2c0 3 2.4 5.4 5.4 5.4s5.4-2.4 5.4-5.4v-7.5c0-.7.6-1.3 1.3-1.3s1.3.6 1.3 1.3l-.1 1.4zm6.6 2.9v3.2c0 .7-.6 1.3-1.3 1.3s-1.3-.6-1.3-1.3v-3.2l-2.5.8-1.6-.8v3.2c0 3 2.4 5.4 5.4 5.4s5.4-2.4 5.4-5.4v-3.2h-4.1z"/></symbol>

  <symbol id="twitter" viewBox="0 1 24 23"><path d="M21.5 7.6v.6c0 6.6-5 14.1-14 14.1-2.8 0-5.4-.8-7.6-2.2l1.2.1c2.3 0 4.4-.8 6.1-2.1-2.2 0-4-1.5-4.6-3.4.3.1.6.1.9.1.5 0 .9-.1 1.3-.2-2.1-.6-3.8-2.6-3.8-5 .7.4 1.4.6 2.2.6-1.3-.9-2.2-2.4-2.2-4.1 0-.9.2-1.8.7-2.5 2.4 3 6.1 5 10.2 5.2-.1-.4-.1-.7-.1-1.1 0-2.7 2.2-5 4.9-5 1.4 0 2.7.6 3.6 1.6 1-.3 2.1-.7 3-1.3-.4 1.2-1.1 2.1-2.2 2.7 1-.1 1.9-.4 2.8-.8-.6 1.1-1.4 2-2.4 2.7z"/></symbol>

  <symbol id="tumblr" viewBox="0 0 23 23"><path d="M12.573 4.94v-4.94h-3.188c-.072.183-.11.4-.11.622-.034.107-.072.184-.072.293-.328 1.829-1.28 3.11-2.892 3.807-.476.218-.914.253-1.39.218v3.987h2.342c.039 5.603.039 8.493.039 8.64v.332c.294 2.449 1.573 3.914 3.843 4.463.914.257 1.901.366 2.892.366 1.279-.036 2.525-.256 3.771-.659v-4.685c-.731.22-1.395.402-1.977.583-1.135.333-2.087.113-2.857-.619-.073-.11-.183-.257-.221-.403-.106-.586-.178-1.206-.178-1.795v-6.222h5.083v-3.988h-5.085z"/></symbol>

  <symbol id="xing" viewBox="0 0 24 24"><path d="M3.647 4.74c-.208 0-.384.073-.472.216-.091.148-.077.338.02.531l2.34 4.051v.02l-3.678 6.49c-.096.191-.091.383 0 .531.088.142.244.236.452.236h3.461c.518 0 .767-.349.944-.669l3.737-6.608-2.38-4.15c-.172-.307-.433-.649-.964-.649h-3.46zm14.542-4.74c-.517 0-.741.326-.927.659l-7.702 13.658 4.918 9.023c.172.307.437.659.967.659h3.457c.208 0 .371-.079.459-.221.092-.148.09-.343-.007-.535l-4.88-8.915v-.023l7.664-13.551c.096-.191.098-.386.007-.534-.088-.142-.252-.221-.46-.221h-3.496z"/></symbol>

  <symbol id="whatsapp" viewBox="0 0 512 512"><path d="M256.064 0h-.128c-141.152 0-255.936 114.816-255.936 256 0 56 18.048 107.904 48.736 150.048l-31.904 95.104 98.4-31.456c40.48 26.816 88.768 42.304 140.832 42.304 141.152 0 255.936-114.848 255.936-256s-114.784-256-255.936-256zm148.96 361.504c-6.176 17.44-30.688 31.904-50.24 36.128-13.376 2.848-30.848 5.12-89.664-19.264-75.232-31.168-123.68-107.616-127.456-112.576-3.616-4.96-30.4-40.48-30.4-77.216s18.656-54.624 26.176-62.304c6.176-6.304 16.384-9.184 26.176-9.184 3.168 0 6.016.16 8.576.288 7.52.32 11.296.768 16.256 12.64 6.176 14.88 21.216 51.616 23.008 55.392 1.824 3.776 3.648 8.896 1.088 13.856-2.4 5.12-4.512 7.392-8.288 11.744-3.776 4.352-7.36 7.68-11.136 12.352-3.456 4.064-7.36 8.416-3.008 15.936 4.352 7.36 19.392 31.904 41.536 51.616 28.576 25.44 51.744 33.568 60.032 37.024 6.176 2.56 13.536 1.952 18.048-2.848 5.728-6.176 12.8-16.416 20-26.496 5.12-7.232 11.584-8.128 18.368-5.568 6.912 2.4 43.488 20.48 51.008 24.224 7.52 3.776 12.48 5.568 14.304 8.736 1.792 3.168 1.792 18.048-4.384 35.52z"/></symbol>

  <symbol id="youtube" viewBox="0 0 24 24"><path d="M23.6 6.3c-.3-1.2-1.4-2.2-2.6-2.3-3-.3-6-.3-9-.3s-6 0-9 .3c-1.2.1-2.3 1.1-2.6 2.3-.4 1.8-.4 3.8-.4 5.7 0 1.9 0 3.9.4 5.7.3 1.2 1.4 2.2 2.6 2.3 3 .3 6 .3 9 .3s6 0 9-.3c1.3-.1 2.3-1.1 2.6-2.4.4-1.7.4-3.7.4-5.6 0-1.9 0-3.9-.4-5.7zm-14.1 9v-6.6l6.5 3.3-6.5 3.3z"/></symbol>

</svg>
